<?xml version="1.0" encoding="UTF-8"?>
<svg xmlns="http://www.w3.org/2000/svg" width="1600" height="920" viewBox="0 0 1600 920" role="img" aria-labelledby="title desc">
<title id="title">Adaptation rates of training systems</title>
<desc id="desc">Conceptual adaptation curves for neural, cardiovascular, muscle, tendon, and bone systems over 52 weeks.</desc>
<rect width="1600" height="920" fill="#f8fafc"/>
<text x="76.0" y="62.0" text-anchor="start" font-family="Inter, Segoe UI, Arial, sans-serif" font-size="35" font-weight="850" fill="#102033" >Adaptation Rates: Why Mechanical Load Needs Pace Control</text>
<text x="78.0" y="96.0" text-anchor="start" font-family="Inter, Segoe UI, Arial, sans-serif" font-size="19" font-weight="400" fill="#64748b" >Conceptual synthesis across training literature; curves show relative timing, not diagnostic thresholds.</text>
<rect x="150" y="150" width="1320" height="540" rx="12" fill="#ffffff" stroke="#d9e2ec" stroke-width="2"/>
<rect x="150.0" y="150" width="101.5" height="540" fill="#f3e8ff" opacity="0.62"/>
<text x="200.8" y="208.0" text-anchor="middle" font-family="Inter, Segoe UI, Arial, sans-serif" font-size="18" font-weight="720" fill="#64748b" >early</text>
<rect x="251.5" y="150" width="203.1" height="540" fill="#ecfeff" opacity="0.62"/>
<text x="353.1" y="208.0" text-anchor="middle" font-family="Inter, Segoe UI, Arial, sans-serif" font-size="18" font-weight="720" fill="#64748b" >weeks</text>
<rect x="454.6" y="150" width="406.2" height="540" fill="#f0fdf4" opacity="0.62"/>
<text x="657.7" y="208.0" text-anchor="middle" font-family="Inter, Segoe UI, Arial, sans-serif" font-size="18" font-weight="720" fill="#64748b" >months</text>
<rect x="860.8" y="150" width="609.2" height="540" fill="#fff7ed" opacity="0.62"/>
<text x="1165.4" y="208.0" text-anchor="middle" font-family="Inter, Segoe UI, Arial, sans-serif" font-size="18" font-weight="720" fill="#64748b" >longer horizon</text>
<line x1="150.0" y1="150" x2="150.0" y2="690" stroke="#e2e8f0" stroke-width="2"/>
<text x="150.0" y="729.0" text-anchor="middle" font-family="Inter, Segoe UI, Arial, sans-serif" font-size="18" font-weight="400" fill="#64748b" >start</text>
<line x1="251.5" y1="150" x2="251.5" y2="690" stroke="#e2e8f0" stroke-width="2"/>
<text x="251.5" y="729.0" text-anchor="middle" font-family="Inter, Segoe UI, Arial, sans-serif" font-size="18" font-weight="400" fill="#64748b" >4w</text>
<line x1="353.1" y1="150" x2="353.1" y2="690" stroke="#e2e8f0" stroke-width="2"/>
<text x="353.1" y="729.0" text-anchor="middle" font-family="Inter, Segoe UI, Arial, sans-serif" font-size="18" font-weight="400" fill="#64748b" >8w</text>
<line x1="454.6" y1="150" x2="454.6" y2="690" stroke="#e2e8f0" stroke-width="2"/>
<text x="454.6" y="729.0" text-anchor="middle" font-family="Inter, Segoe UI, Arial, sans-serif" font-size="18" font-weight="400" fill="#64748b" >12w</text>
<line x1="810.0" y1="150" x2="810.0" y2="690" stroke="#e2e8f0" stroke-width="2"/>
<text x="810.0" y="729.0" text-anchor="middle" font-family="Inter, Segoe UI, Arial, sans-serif" font-size="18" font-weight="400" fill="#64748b" >26w</text>
<line x1="1140.0" y1="150" x2="1140.0" y2="690" stroke="#e2e8f0" stroke-width="2"/>
<text x="1140.0" y="729.0" text-anchor="middle" font-family="Inter, Segoe UI, Arial, sans-serif" font-size="18" font-weight="400" fill="#64748b" >39w</text>
<line x1="1470.0" y1="150" x2="1470.0" y2="690" stroke="#e2e8f0" stroke-width="2"/>
<text x="1470.0" y="729.0" text-anchor="middle" font-family="Inter, Segoe UI, Arial, sans-serif" font-size="18" font-weight="400" fill="#64748b" >52w</text>
<line x1="150" y1="555.0" x2="1470" y2="555.0" stroke="#e8eef5" stroke-width="2"/>
<line x1="150" y1="420.0" x2="1470" y2="420.0" stroke="#e8eef5" stroke-width="2"/>
<line x1="150" y1="285.0" x2="1470" y2="285.0" stroke="#e8eef5" stroke-width="2"/>
<line x1="150" y1="150.0" x2="1470" y2="150.0" stroke="#e8eef5" stroke-width="2"/>
<line x1="150" y1="690" x2="1470" y2="690" stroke="#243447" stroke-width="3"/>
<line x1="150" y1="150" x2="150" y2="690" stroke="#243447" stroke-width="3"/>
<text x="810.0" y="884.0" text-anchor="middle" font-family="Inter, Segoe UI, Arial, sans-serif" font-size="24" font-weight="760" fill="#1f2937" >Training time</text>
<text x="43.0" y="435.0" text-anchor="middle" font-family="Inter, Segoe UI, Arial, sans-serif" font-size="23" font-weight="760" fill="#1f2937" transform="rotate(-90 43 435)">relative adaptation</text>
<path d="M 251.5 187.8 C 353.1 153.8, 530.8 153.8, 657.7 187.8" fill="none" stroke="#ef4444" stroke-width="3" stroke-dasharray="9 8"/>
<text x="454.6" y="141.8" text-anchor="middle" font-family="Inter, Segoe UI, Arial, sans-serif" font-size="20" font-weight="800" fill="#b91c1c" >mismatch window</text>
<path d="M 150.0 690.0 L 156.0 650.6 L 162.0 614.6 L 168.0 581.7 L 174.0 551.7 L 180.0 524.3 L 186.0 499.3 L 192.0 476.5 L 198.0 455.6 L 204.0 436.5 L 210.0 419.2 L 216.0 403.3 L 222.0 388.8 L 228.0 375.5 L 234.0 363.4 L 240.0 352.4 L 246.0 342.3 L 252.0 333.1 L 258.0 324.7 L 264.0 317.0 L 270.0 310.0 L 276.0 303.6 L 282.0 297.8 L 288.0 292.5 L 294.0 287.6 L 300.0 283.1 L 306.0 279.1 L 312.0 275.4 L 318.0 272.0 L 324.0 268.9 L 330.0 266.1 L 336.0 263.5 L 342.0 261.1 L 348.0 259.0 L 354.0 257.0 L 360.0 255.2 L 366.0 253.6 L 372.0 252.1 L 378.0 250.7 L 384.0 249.5 L 390.0 248.4 L 396.0 247.3 L 402.0 246.4 L 408.0 245.5 L 414.0 244.7 L 420.0 244.0 L 426.0 243.3 L 432.0 242.7 L 438.0 242.2 L 444.0 241.7 L 450.0 241.2 L 456.0 240.8 L 462.0 240.4 L 468.0 240.1 L 474.0 239.7 L 480.0 239.5 L 486.0 239.2 L 492.0 238.9 L 498.0 238.7 L 504.0 238.5 L 510.0 238.3 L 516.0 238.2 L 522.0 238.0 L 528.0 237.9 L 534.0 237.7 L 540.0 237.6 L 546.0 237.5 L 552.0 237.4 L 558.0 237.3 L 564.0 237.3 L 570.0 237.2 L 576.0 237.1 L 582.0 237.1 L 588.0 237.0 L 594.0 236.9 L 600.0 236.9 L 606.0 236.9 L 612.0 236.8 L 618.0 236.8 L 624.0 236.7 L 630.0 236.7 L 636.0 236.7 L 642.0 236.7 L 648.0 236.6 L 654.0 236.6 L 660.0 236.6 L 666.0 236.6 L 672.0 236.6 L 678.0 236.6 L 684.0 236.5 L 690.0 236.5 L 696.0 236.5 L 702.0 236.5 L 708.0 236.5 L 714.0 236.5 L 720.0 236.5 L 726.0 236.5 L 732.0 236.5 L 738.0 236.5 L 744.0 236.5 L 750.0 236.5 L 756.0 236.4 L 762.0 236.4 L 768.0 236.4 L 774.0 236.4 L 780.0 236.4 L 786.0 236.4 L 792.0 236.4 L 798.0 236.4 L 804.0 236.4 L 810.0 236.4 L 816.0 236.4 L 822.0 236.4 L 828.0 236.4 L 834.0 236.4 L 840.0 236.4 L 846.0 236.4 L 852.0 236.4 L 858.0 236.4 L 864.0 236.4 L 870.0 236.4 L 876.0 236.4 L 882.0 236.4 L 888.0 236.4 L 894.0 236.4 L 900.0 236.4 L 906.0 236.4 L 912.0 236.4 L 918.0 236.4 L 924.0 236.4 L 930.0 236.4 L 936.0 236.4 L 942.0 236.4 L 948.0 236.4 L 954.0 236.4 L 960.0 236.4 L 966.0 236.4 L 972.0 236.4 L 978.0 236.4 L 984.0 236.4 L 990.0 236.4 L 996.0 236.4 L 1002.0 236.4 L 1008.0 236.4 L 1014.0 236.4 L 1020.0 236.4 L 1026.0 236.4 L 1032.0 236.4 L 1038.0 236.4 L 1044.0 236.4 L 1050.0 236.4 L 1056.0 236.4 L 1062.0 236.4 L 1068.0 236.4 L 1074.0 236.4 L 1080.0 236.4 L 1086.0 236.4 L 1092.0 236.4 L 1098.0 236.4 L 1104.0 236.4 L 1110.0 236.4 L 1116.0 236.4 L 1122.0 236.4 L 1128.0 236.4 L 1134.0 236.4 L 1140.0 236.4 L 1146.0 236.4 L 1152.0 236.4 L 1158.0 236.4 L 1164.0 236.4 L 1170.0 236.4 L 1176.0 236.4 L 1182.0 236.4 L 1188.0 236.4 L 1194.0 236.4 L 1200.0 236.4 L 1206.0 236.4 L 1212.0 236.4 L 1218.0 236.4 L 1224.0 236.4 L 1230.0 236.4 L 1236.0 236.4 L 1242.0 236.4 L 1248.0 236.4 L 1254.0 236.4 L 1260.0 236.4 L 1266.0 236.4 L 1272.0 236.4 L 1278.0 236.4 L 1284.0 236.4 L 1290.0 236.4 L 1296.0 236.4 L 1302.0 236.4 L 1308.0 236.4 L 1314.0 236.4 L 1320.0 236.4 L 1326.0 236.4 L 1332.0 236.4 L 1338.0 236.4 L 1344.0 236.4 L 1350.0 236.4 L 1356.0 236.4 L 1362.0 236.4 L 1368.0 236.4 L 1374.0 236.4 L 1380.0 236.4 L 1386.0 236.4 L 1392.0 236.4 L 1398.0 236.4 L 1404.0 236.4 L 1410.0 236.4 L 1416.0 236.4 L 1422.0 236.4 L 1428.0 236.4 L 1434.0 236.4 L 1440.0 236.4 L 1446.0 236.4 L 1452.0 236.4 L 1458.0 236.4 L 1464.0 236.4 L 1470.0 236.4" fill="none" stroke="#7c3aed" stroke-width="7" stroke-linecap="round" stroke-linejoin="round"/>
<path d="M 150.0 690.0 L 156.0 670.0 L 162.0 650.9 L 168.0 632.5 L 174.0 614.9 L 180.0 598.1 L 186.0 582.0 L 192.0 566.5 L 198.0 551.7 L 204.0 537.6 L 210.0 524.0 L 216.0 511.0 L 222.0 498.5 L 228.0 486.6 L 234.0 475.2 L 240.0 464.2 L 246.0 453.7 L 252.0 443.7 L 258.0 434.0 L 264.0 424.8 L 270.0 416.0 L 276.0 407.5 L 282.0 399.4 L 288.0 391.7 L 294.0 384.2 L 300.0 377.1 L 306.0 370.3 L 312.0 363.7 L 318.0 357.5 L 324.0 351.5 L 330.0 345.7 L 336.0 340.2 L 342.0 334.9 L 348.0 329.9 L 354.0 325.0 L 360.0 320.4 L 366.0 316.0 L 372.0 311.7 L 378.0 307.6 L 384.0 303.7 L 390.0 300.0 L 396.0 296.4 L 402.0 293.0 L 408.0 289.7 L 414.0 286.5 L 420.0 283.5 L 426.0 280.6 L 432.0 277.8 L 438.0 275.2 L 444.0 272.7 L 450.0 270.2 L 456.0 267.9 L 462.0 265.7 L 468.0 263.5 L 474.0 261.5 L 480.0 259.5 L 486.0 257.6 L 492.0 255.8 L 498.0 254.1 L 504.0 252.4 L 510.0 250.9 L 516.0 249.3 L 522.0 247.9 L 528.0 246.5 L 534.0 245.2 L 540.0 243.9 L 546.0 242.7 L 552.0 241.5 L 558.0 240.4 L 564.0 239.3 L 570.0 238.3 L 576.0 237.3 L 582.0 236.3 L 588.0 235.4 L 594.0 234.6 L 600.0 233.7 L 606.0 232.9 L 612.0 232.2 L 618.0 231.4 L 624.0 230.7 L 630.0 230.1 L 636.0 229.4 L 642.0 228.8 L 648.0 228.2 L 654.0 227.7 L 660.0 227.1 L 666.0 226.6 L 672.0 226.1 L 678.0 225.6 L 684.0 225.2 L 690.0 224.7 L 696.0 224.3 L 702.0 223.9 L 708.0 223.5 L 714.0 223.2 L 720.0 222.8 L 726.0 222.5 L 732.0 222.2 L 738.0 221.8 L 744.0 221.5 L 750.0 221.3 L 756.0 221.0 L 762.0 220.7 L 768.0 220.5 L 774.0 220.2 L 780.0 220.0 L 786.0 219.8 L 792.0 219.6 L 798.0 219.4 L 804.0 219.2 L 810.0 219.0 L 816.0 218.8 L 822.0 218.7 L 828.0 218.5 L 834.0 218.3 L 840.0 218.2 L 846.0 218.0 L 852.0 217.9 L 858.0 217.8 L 864.0 217.7 L 870.0 217.5 L 876.0 217.4 L 882.0 217.3 L 888.0 217.2 L 894.0 217.1 L 900.0 217.0 L 906.0 216.9 L 912.0 216.8 L 918.0 216.7 L 924.0 216.7 L 930.0 216.6 L 936.0 216.5 L 942.0 216.4 L 948.0 216.4 L 954.0 216.3 L 960.0 216.2 L 966.0 216.2 L 972.0 216.1 L 978.0 216.1 L 984.0 216.0 L 990.0 216.0 L 996.0 215.9 L 1002.0 215.9 L 1008.0 215.8 L 1014.0 215.8 L 1020.0 215.7 L 1026.0 215.7 L 1032.0 215.7 L 1038.0 215.6 L 1044.0 215.6 L 1050.0 215.6 L 1056.0 215.5 L 1062.0 215.5 L 1068.0 215.5 L 1074.0 215.4 L 1080.0 215.4 L 1086.0 215.4 L 1092.0 215.4 L 1098.0 215.3 L 1104.0 215.3 L 1110.0 215.3 L 1116.0 215.3 L 1122.0 215.3 L 1128.0 215.2 L 1134.0 215.2 L 1140.0 215.2 L 1146.0 215.2 L 1152.0 215.2 L 1158.0 215.1 L 1164.0 215.1 L 1170.0 215.1 L 1176.0 215.1 L 1182.0 215.1 L 1188.0 215.1 L 1194.0 215.1 L 1200.0 215.1 L 1206.0 215.0 L 1212.0 215.0 L 1218.0 215.0 L 1224.0 215.0 L 1230.0 215.0 L 1236.0 215.0 L 1242.0 215.0 L 1248.0 215.0 L 1254.0 215.0 L 1260.0 215.0 L 1266.0 215.0 L 1272.0 215.0 L 1278.0 214.9 L 1284.0 214.9 L 1290.0 214.9 L 1296.0 214.9 L 1302.0 214.9 L 1308.0 214.9 L 1314.0 214.9 L 1320.0 214.9 L 1326.0 214.9 L 1332.0 214.9 L 1338.0 214.9 L 1344.0 214.9 L 1350.0 214.9 L 1356.0 214.9 L 1362.0 214.9 L 1368.0 214.9 L 1374.0 214.9 L 1380.0 214.9 L 1386.0 214.9 L 1392.0 214.9 L 1398.0 214.9 L 1404.0 214.9 L 1410.0 214.9 L 1416.0 214.9 L 1422.0 214.9 L 1428.0 214.9 L 1434.0 214.8 L 1440.0 214.8 L 1446.0 214.8 L 1452.0 214.8 L 1458.0 214.8 L 1464.0 214.8 L 1470.0 214.8" fill="none" stroke="#0891b2" stroke-width="7" stroke-linecap="round" stroke-linejoin="round"/>
<path d="M 150.0 690.0 L 156.0 678.6 L 162.0 667.6 L 168.0 656.7 L 174.0 646.2 L 180.0 635.8 L 186.0 625.7 L 192.0 615.9 L 198.0 606.3 L 204.0 596.9 L 210.0 587.7 L 216.0 578.7 L 222.0 570.0 L 228.0 561.4 L 234.0 553.1 L 240.0 544.9 L 246.0 537.0 L 252.0 529.2 L 258.0 521.6 L 264.0 514.2 L 270.0 506.9 L 276.0 499.8 L 282.0 492.9 L 288.0 486.2 L 294.0 479.6 L 300.0 473.2 L 306.0 466.9 L 312.0 460.7 L 318.0 454.7 L 324.0 448.9 L 330.0 443.2 L 336.0 437.6 L 342.0 432.1 L 348.0 426.8 L 354.0 421.6 L 360.0 416.5 L 366.0 411.5 L 372.0 406.7 L 378.0 402.0 L 384.0 397.3 L 390.0 392.8 L 396.0 388.4 L 402.0 384.1 L 408.0 379.9 L 414.0 375.8 L 420.0 371.8 L 426.0 367.8 L 432.0 364.0 L 438.0 360.3 L 444.0 356.6 L 450.0 353.1 L 456.0 349.6 L 462.0 346.2 L 468.0 342.9 L 474.0 339.6 L 480.0 336.5 L 486.0 333.4 L 492.0 330.3 L 498.0 327.4 L 504.0 324.5 L 510.0 321.7 L 516.0 318.9 L 522.0 316.3 L 528.0 313.6 L 534.0 311.1 L 540.0 308.6 L 546.0 306.1 L 552.0 303.7 L 558.0 301.4 L 564.0 299.1 L 570.0 296.9 L 576.0 294.7 L 582.0 292.6 L 588.0 290.6 L 594.0 288.5 L 600.0 286.6 L 606.0 284.6 L 612.0 282.7 L 618.0 280.9 L 624.0 279.1 L 630.0 277.4 L 636.0 275.6 L 642.0 274.0 L 648.0 272.3 L 654.0 270.7 L 660.0 269.2 L 666.0 267.7 L 672.0 266.2 L 678.0 264.7 L 684.0 263.3 L 690.0 261.9 L 696.0 260.6 L 702.0 259.2 L 708.0 257.9 L 714.0 256.7 L 720.0 255.5 L 726.0 254.3 L 732.0 253.1 L 738.0 251.9 L 744.0 250.8 L 750.0 249.7 L 756.0 248.7 L 762.0 247.6 L 768.0 246.6 L 774.0 245.6 L 780.0 244.6 L 786.0 243.7 L 792.0 242.7 L 798.0 241.8 L 804.0 241.0 L 810.0 240.1 L 816.0 239.3 L 822.0 238.4 L 828.0 237.6 L 834.0 236.8 L 840.0 236.1 L 846.0 235.3 L 852.0 234.6 L 858.0 233.9 L 864.0 233.2 L 870.0 232.5 L 876.0 231.8 L 882.0 231.2 L 888.0 230.5 L 894.0 229.9 L 900.0 229.3 L 906.0 228.7 L 912.0 228.2 L 918.0 227.6 L 924.0 227.0 L 930.0 226.5 L 936.0 226.0 L 942.0 225.5 L 948.0 225.0 L 954.0 224.5 L 960.0 224.0 L 966.0 223.5 L 972.0 223.1 L 978.0 222.6 L 984.0 222.2 L 990.0 221.8 L 996.0 221.3 L 1002.0 220.9 L 1008.0 220.5 L 1014.0 220.2 L 1020.0 219.8 L 1026.0 219.4 L 1032.0 219.1 L 1038.0 218.7 L 1044.0 218.4 L 1050.0 218.0 L 1056.0 217.7 L 1062.0 217.4 L 1068.0 217.1 L 1074.0 216.8 L 1080.0 216.5 L 1086.0 216.2 L 1092.0 215.9 L 1098.0 215.6 L 1104.0 215.3 L 1110.0 215.1 L 1116.0 214.8 L 1122.0 214.6 L 1128.0 214.3 L 1134.0 214.1 L 1140.0 213.8 L 1146.0 213.6 L 1152.0 213.4 L 1158.0 213.2 L 1164.0 213.0 L 1170.0 212.7 L 1176.0 212.5 L 1182.0 212.3 L 1188.0 212.1 L 1194.0 212.0 L 1200.0 211.8 L 1206.0 211.6 L 1212.0 211.4 L 1218.0 211.2 L 1224.0 211.1 L 1230.0 210.9 L 1236.0 210.7 L 1242.0 210.6 L 1248.0 210.4 L 1254.0 210.3 L 1260.0 210.1 L 1266.0 210.0 L 1272.0 209.8 L 1278.0 209.7 L 1284.0 209.6 L 1290.0 209.4 L 1296.0 209.3 L 1302.0 209.2 L 1308.0 209.1 L 1314.0 209.0 L 1320.0 208.8 L 1326.0 208.7 L 1332.0 208.6 L 1338.0 208.5 L 1344.0 208.4 L 1350.0 208.3 L 1356.0 208.2 L 1362.0 208.1 L 1368.0 208.0 L 1374.0 207.9 L 1380.0 207.8 L 1386.0 207.7 L 1392.0 207.6 L 1398.0 207.6 L 1404.0 207.5 L 1410.0 207.4 L 1416.0 207.3 L 1422.0 207.2 L 1428.0 207.2 L 1434.0 207.1 L 1440.0 207.0 L 1446.0 206.9 L 1452.0 206.9 L 1458.0 206.8 L 1464.0 206.7 L 1470.0 206.7" fill="none" stroke="#16a34a" stroke-width="7" stroke-linecap="round" stroke-linejoin="round"/>
<path d="M 150.0 690.0 L 156.0 684.5 L 162.0 679.1 L 168.0 673.8 L 174.0 668.5 L 180.0 663.3 L 186.0 658.2 L 192.0 653.1 L 198.0 648.1 L 204.0 643.1 L 210.0 638.2 L 216.0 633.4 L 222.0 628.6 L 228.0 623.9 L 234.0 619.2 L 240.0 614.6 L 246.0 610.1 L 252.0 605.6 L 258.0 601.2 L 264.0 596.8 L 270.0 592.5 L 276.0 588.2 L 282.0 584.0 L 288.0 579.8 L 294.0 575.7 L 300.0 571.6 L 306.0 567.6 L 312.0 563.7 L 318.0 559.8 L 324.0 555.9 L 330.0 552.1 L 336.0 548.3 L 342.0 544.6 L 348.0 540.9 L 354.0 537.3 L 360.0 533.7 L 366.0 530.2 L 372.0 526.7 L 378.0 523.2 L 384.0 519.8 L 390.0 516.4 L 396.0 513.1 L 402.0 509.8 L 408.0 506.6 L 414.0 503.3 L 420.0 500.2 L 426.0 497.1 L 432.0 494.0 L 438.0 490.9 L 444.0 487.9 L 450.0 484.9 L 456.0 482.0 L 462.0 479.1 L 468.0 476.2 L 474.0 473.4 L 480.0 470.6 L 486.0 467.8 L 492.0 465.1 L 498.0 462.4 L 504.0 459.7 L 510.0 457.1 L 516.0 454.5 L 522.0 452.0 L 528.0 449.4 L 534.0 446.9 L 540.0 444.5 L 546.0 442.0 L 552.0 439.6 L 558.0 437.2 L 564.0 434.9 L 570.0 432.6 L 576.0 430.3 L 582.0 428.0 L 588.0 425.8 L 594.0 423.6 L 600.0 421.4 L 606.0 419.2 L 612.0 417.1 L 618.0 415.0 L 624.0 412.9 L 630.0 410.9 L 636.0 408.9 L 642.0 406.9 L 648.0 404.9 L 654.0 402.9 L 660.0 401.0 L 666.0 399.1 L 672.0 397.2 L 678.0 395.4 L 684.0 393.5 L 690.0 391.7 L 696.0 389.9 L 702.0 388.2 L 708.0 386.4 L 714.0 384.7 L 720.0 383.0 L 726.0 381.3 L 732.0 379.7 L 738.0 378.0 L 744.0 376.4 L 750.0 374.8 L 756.0 373.2 L 762.0 371.7 L 768.0 370.2 L 774.0 368.6 L 780.0 367.1 L 786.0 365.6 L 792.0 364.2 L 798.0 362.7 L 804.0 361.3 L 810.0 359.9 L 816.0 358.5 L 822.0 357.1 L 828.0 355.8 L 834.0 354.4 L 840.0 353.1 L 846.0 351.8 L 852.0 350.5 L 858.0 349.2 L 864.0 348.0 L 870.0 346.7 L 876.0 345.5 L 882.0 344.3 L 888.0 343.1 L 894.0 341.9 L 900.0 340.7 L 906.0 339.6 L 912.0 338.4 L 918.0 337.3 L 924.0 336.2 L 930.0 335.1 L 936.0 334.0 L 942.0 332.9 L 948.0 331.9 L 954.0 330.8 L 960.0 329.8 L 966.0 328.8 L 972.0 327.7 L 978.0 326.7 L 984.0 325.8 L 990.0 324.8 L 996.0 323.8 L 1002.0 322.9 L 1008.0 322.0 L 1014.0 321.0 L 1020.0 320.1 L 1026.0 319.2 L 1032.0 318.3 L 1038.0 317.4 L 1044.0 316.6 L 1050.0 315.7 L 1056.0 314.9 L 1062.0 314.0 L 1068.0 313.2 L 1074.0 312.4 L 1080.0 311.6 L 1086.0 310.8 L 1092.0 310.0 L 1098.0 309.2 L 1104.0 308.5 L 1110.0 307.7 L 1116.0 307.0 L 1122.0 306.2 L 1128.0 305.5 L 1134.0 304.8 L 1140.0 304.1 L 1146.0 303.4 L 1152.0 302.7 L 1158.0 302.0 L 1164.0 301.3 L 1170.0 300.6 L 1176.0 300.0 L 1182.0 299.3 L 1188.0 298.7 L 1194.0 298.0 L 1200.0 297.4 L 1206.0 296.8 L 1212.0 296.2 L 1218.0 295.6 L 1224.0 295.0 L 1230.0 294.4 L 1236.0 293.8 L 1242.0 293.2 L 1248.0 292.6 L 1254.0 292.1 L 1260.0 291.5 L 1266.0 291.0 L 1272.0 290.4 L 1278.0 289.9 L 1284.0 289.4 L 1290.0 288.9 L 1296.0 288.3 L 1302.0 287.8 L 1308.0 287.3 L 1314.0 286.8 L 1320.0 286.3 L 1326.0 285.9 L 1332.0 285.4 L 1338.0 284.9 L 1344.0 284.4 L 1350.0 284.0 L 1356.0 283.5 L 1362.0 283.1 L 1368.0 282.6 L 1374.0 282.2 L 1380.0 281.8 L 1386.0 281.3 L 1392.0 280.9 L 1398.0 280.5 L 1404.0 280.1 L 1410.0 279.7 L 1416.0 279.3 L 1422.0 278.9 L 1428.0 278.5 L 1434.0 278.1 L 1440.0 277.7 L 1446.0 277.3 L 1452.0 277.0 L 1458.0 276.6 L 1464.0 276.2 L 1470.0 275.9" fill="none" stroke="#d97706" stroke-width="7" stroke-linecap="round" stroke-linejoin="round"/>
<path d="M 150.0 690.0 L 156.0 686.9 L 162.0 683.8 L 168.0 680.7 L 174.0 677.7 L 180.0 674.6 L 186.0 671.6 L 192.0 668.7 L 198.0 665.7 L 204.0 662.8 L 210.0 659.9 L 216.0 657.0 L 222.0 654.1 L 228.0 651.3 L 234.0 648.4 L 240.0 645.6 L 246.0 642.9 L 252.0 640.1 L 258.0 637.4 L 264.0 634.7 L 270.0 632.0 L 276.0 629.3 L 282.0 626.6 L 288.0 624.0 L 294.0 621.4 L 300.0 618.8 L 306.0 616.2 L 312.0 613.6 L 318.0 611.1 L 324.0 608.6 L 330.0 606.1 L 336.0 603.6 L 342.0 601.1 L 348.0 598.7 L 354.0 596.3 L 360.0 593.9 L 366.0 591.5 L 372.0 589.1 L 378.0 586.8 L 384.0 584.4 L 390.0 582.1 L 396.0 579.8 L 402.0 577.5 L 408.0 575.3 L 414.0 573.0 L 420.0 570.8 L 426.0 568.6 L 432.0 566.4 L 438.0 564.2 L 444.0 562.1 L 450.0 559.9 L 456.0 557.8 L 462.0 555.7 L 468.0 553.6 L 474.0 551.5 L 480.0 549.4 L 486.0 547.4 L 492.0 545.3 L 498.0 543.3 L 504.0 541.3 L 510.0 539.3 L 516.0 537.4 L 522.0 535.4 L 528.0 533.5 L 534.0 531.5 L 540.0 529.6 L 546.0 527.7 L 552.0 525.8 L 558.0 524.0 L 564.0 522.1 L 570.0 520.3 L 576.0 518.4 L 582.0 516.6 L 588.0 514.8 L 594.0 513.0 L 600.0 511.3 L 606.0 509.5 L 612.0 507.8 L 618.0 506.0 L 624.0 504.3 L 630.0 502.6 L 636.0 500.9 L 642.0 499.2 L 648.0 497.6 L 654.0 495.9 L 660.0 494.3 L 666.0 492.6 L 672.0 491.0 L 678.0 489.4 L 684.0 487.8 L 690.0 486.2 L 696.0 484.7 L 702.0 483.1 L 708.0 481.6 L 714.0 480.0 L 720.0 478.5 L 726.0 477.0 L 732.0 475.5 L 738.0 474.0 L 744.0 472.5 L 750.0 471.1 L 756.0 469.6 L 762.0 468.2 L 768.0 466.7 L 774.0 465.3 L 780.0 463.9 L 786.0 462.5 L 792.0 461.1 L 798.0 459.7 L 804.0 458.4 L 810.0 457.0 L 816.0 455.7 L 822.0 454.3 L 828.0 453.0 L 834.0 451.7 L 840.0 450.4 L 846.0 449.1 L 852.0 447.8 L 858.0 446.5 L 864.0 445.2 L 870.0 444.0 L 876.0 442.7 L 882.0 441.5 L 888.0 440.3 L 894.0 439.0 L 900.0 437.8 L 906.0 436.6 L 912.0 435.4 L 918.0 434.3 L 924.0 433.1 L 930.0 431.9 L 936.0 430.8 L 942.0 429.6 L 948.0 428.5 L 954.0 427.3 L 960.0 426.2 L 966.0 425.1 L 972.0 424.0 L 978.0 422.9 L 984.0 421.8 L 990.0 420.7 L 996.0 419.7 L 1002.0 418.6 L 1008.0 417.5 L 1014.0 416.5 L 1020.0 415.5 L 1026.0 414.4 L 1032.0 413.4 L 1038.0 412.4 L 1044.0 411.4 L 1050.0 410.4 L 1056.0 409.4 L 1062.0 408.4 L 1068.0 407.4 L 1074.0 406.4 L 1080.0 405.5 L 1086.0 404.5 L 1092.0 403.6 L 1098.0 402.6 L 1104.0 401.7 L 1110.0 400.8 L 1116.0 399.8 L 1122.0 398.9 L 1128.0 398.0 L 1134.0 397.1 L 1140.0 396.2 L 1146.0 395.4 L 1152.0 394.5 L 1158.0 393.6 L 1164.0 392.7 L 1170.0 391.9 L 1176.0 391.0 L 1182.0 390.2 L 1188.0 389.3 L 1194.0 388.5 L 1200.0 387.7 L 1206.0 386.9 L 1212.0 386.0 L 1218.0 385.2 L 1224.0 384.4 L 1230.0 383.6 L 1236.0 382.8 L 1242.0 382.1 L 1248.0 381.3 L 1254.0 380.5 L 1260.0 379.7 L 1266.0 379.0 L 1272.0 378.2 L 1278.0 377.5 L 1284.0 376.7 L 1290.0 376.0 L 1296.0 375.3 L 1302.0 374.5 L 1308.0 373.8 L 1314.0 373.1 L 1320.0 372.4 L 1326.0 371.7 L 1332.0 371.0 L 1338.0 370.3 L 1344.0 369.6 L 1350.0 368.9 L 1356.0 368.2 L 1362.0 367.6 L 1368.0 366.9 L 1374.0 366.2 L 1380.0 365.6 L 1386.0 364.9 L 1392.0 364.3 L 1398.0 363.6 L 1404.0 363.0 L 1410.0 362.4 L 1416.0 361.7 L 1422.0 361.1 L 1428.0 360.5 L 1434.0 359.9 L 1440.0 359.3 L 1446.0 358.7 L 1452.0 358.1 L 1458.0 357.5 L 1464.0 356.9 L 1470.0 356.3" fill="none" stroke="#dc2626" stroke-width="7" stroke-linecap="round" stroke-linejoin="round"/>
<circle cx="276.9" cy="302.7" r="8" fill="#7c3aed" stroke="#ffffff" stroke-width="4"/>
<line x1="276.9" y1="302.7" x2="296.9" y2="246.7" stroke="#7c3aed" stroke-width="2" opacity="0.45"/>
<rect x="304.9" y="224.7" width="248" height="54" rx="8" fill="#ffffff" opacity="0.96" stroke="#e2e8f0" stroke-width="2"/>
<text x="319.9" y="246.7" text-anchor="start" font-family="Inter, Segoe UI, Arial, sans-serif" font-size="18" font-weight="820" fill="#7c3aed" >Nervous system</text>
<text x="319.9" y="268.7" text-anchor="start" font-family="Inter, Segoe UI, Arial, sans-serif" font-size="15" font-weight="400" fill="#64748b" >coordination / recruitment</text>
<circle cx="378.5" cy="307.3" r="8" fill="#0891b2" stroke="#ffffff" stroke-width="4"/>
<line x1="378.5" y1="307.3" x2="430.5" y2="345.3" stroke="#0891b2" stroke-width="2" opacity="0.45"/>
<rect x="438.5" y="323.3" width="248" height="54" rx="8" fill="#ffffff" opacity="0.96" stroke="#e2e8f0" stroke-width="2"/>
<text x="453.5" y="345.3" text-anchor="start" font-family="Inter, Segoe UI, Arial, sans-serif" font-size="18" font-weight="820" fill="#0891b2" >Cardiovascular</text>
<text x="453.5" y="367.3" text-anchor="start" font-family="Inter, Segoe UI, Arial, sans-serif" font-size="15" font-weight="400" fill="#64748b" >VO2max / delivery</text>
<circle cx="556.2" cy="302.1" r="8" fill="#16a34a" stroke="#ffffff" stroke-width="4"/>
<line x1="556.2" y1="302.1" x2="582.2" y2="260.1" stroke="#16a34a" stroke-width="2" opacity="0.45"/>
<rect x="590.2" y="238.1" width="248" height="54" rx="8" fill="#ffffff" opacity="0.96" stroke="#e2e8f0" stroke-width="2"/>
<text x="605.2" y="260.1" text-anchor="start" font-family="Inter, Segoe UI, Arial, sans-serif" font-size="18" font-weight="820" fill="#16a34a" >Skeletal muscle</text>
<text x="605.2" y="282.1" text-anchor="start" font-family="Inter, Segoe UI, Arial, sans-serif" font-size="15" font-weight="400" fill="#64748b" >mitochondria / strength</text>
<circle cx="860.8" cy="348.6" r="8" fill="#d97706" stroke="#ffffff" stroke-width="4"/>
<line x1="860.8" y1="348.6" x2="870.8" y2="346.6" stroke="#d97706" stroke-width="2" opacity="0.45"/>
<rect x="878.8" y="324.6" width="248" height="54" rx="8" fill="#ffffff" opacity="0.96" stroke="#e2e8f0" stroke-width="2"/>
<text x="893.8" y="346.6" text-anchor="start" font-family="Inter, Segoe UI, Arial, sans-serif" font-size="18" font-weight="820" fill="#d97706" >Tendon</text>
<text x="893.8" y="368.6" text-anchor="start" font-family="Inter, Segoe UI, Arial, sans-serif" font-size="15" font-weight="400" fill="#64748b" >stiffness / collagen</text>
<circle cx="1216.2" cy="385.5" r="8" fill="#dc2626" stroke="#ffffff" stroke-width="4"/>
<line x1="1216.2" y1="385.5" x2="1232.2" y2="383.5" stroke="#dc2626" stroke-width="2" opacity="0.45"/>
<rect x="1240.2" y="361.5" width="248" height="54" rx="8" fill="#ffffff" opacity="0.96" stroke="#e2e8f0" stroke-width="2"/>
<text x="1255.2" y="383.5" text-anchor="start" font-family="Inter, Segoe UI, Arial, sans-serif" font-size="18" font-weight="820" fill="#dc2626" >Bone</text>
<text x="1255.2" y="405.5" text-anchor="start" font-family="Inter, Segoe UI, Arial, sans-serif" font-size="15" font-weight="400" fill="#64748b" >fatigue resistance</text>
<rect x="1010" y="186" width="390" height="138" rx="10" fill="#ffffff" stroke="#dbe4ef" stroke-width="2"/>
<rect x="1010" y="186" width="8" height="138" rx="4" fill="#0ea5e9"/>
<text x="1034.0" y="222.0" text-anchor="start" font-family="Inter, Segoe UI, Arial, sans-serif" font-size="22" font-weight="800" fill="#0f172a" >Why pace helps</text>
<text x="1034.0" y="254.0" text-anchor="start" font-family="Inter, Segoe UI, Arial, sans-serif" font-size="18" font-weight="400" fill="#475569" >Heart and breathing can feel ready</text>
<text x="1034.0" y="276.0" text-anchor="start" font-family="Inter, Segoe UI, Arial, sans-serif" font-size="18" font-weight="400" fill="#475569" >before tendons and bone have adapted.</text>
<text x="1034.0" y="298.0" text-anchor="start" font-family="Inter, Segoe UI, Arial, sans-serif" font-size="18" font-weight="400" fill="#475569" >Pace gives an external target for</text>
<text x="1034.0" y="320.0" text-anchor="start" font-family="Inter, Segoe UI, Arial, sans-serif" font-size="18" font-weight="400" fill="#475569" >repeated mechanical loading.</text>
<rect x="105.0" y="731.0" width="18" height="18" rx="5" fill="#7c3aed"/>
<text x="134.0" y="747.0" text-anchor="start" font-family="Inter, Segoe UI, Arial, sans-serif" font-size="20" font-weight="760" fill="#1e293b" >neural control</text>
<text x="134.0" y="772.0" text-anchor="start" font-family="Inter, Segoe UI, Arial, sans-serif" font-size="17" font-weight="400" fill="#64748b" >Nervous system</text>
<rect x="410.0" y="731.0" width="18" height="18" rx="5" fill="#0891b2"/>
<text x="439.0" y="747.0" text-anchor="start" font-family="Inter, Segoe UI, Arial, sans-serif" font-size="20" font-weight="760" fill="#1e293b" >heart + blood flow</text>
<text x="439.0" y="772.0" text-anchor="start" font-family="Inter, Segoe UI, Arial, sans-serif" font-size="17" font-weight="400" fill="#64748b" >Cardiovascular</text>
<rect x="705.0" y="731.0" width="18" height="18" rx="5" fill="#16a34a"/>
<text x="734.0" y="747.0" text-anchor="start" font-family="Inter, Segoe UI, Arial, sans-serif" font-size="20" font-weight="760" fill="#1e293b" >muscle metabolism</text>
<text x="734.0" y="772.0" text-anchor="start" font-family="Inter, Segoe UI, Arial, sans-serif" font-size="17" font-weight="400" fill="#64748b" >Skeletal muscle</text>
<rect x="1000.0" y="731.0" width="18" height="18" rx="5" fill="#d97706"/>
<text x="1029.0" y="747.0" text-anchor="start" font-family="Inter, Segoe UI, Arial, sans-serif" font-size="20" font-weight="760" fill="#1e293b" >connective tissue</text>
<text x="1029.0" y="772.0" text-anchor="start" font-family="Inter, Segoe UI, Arial, sans-serif" font-size="17" font-weight="400" fill="#64748b" >Tendon</text>
<rect x="1278.0" y="731.0" width="18" height="18" rx="5" fill="#dc2626"/>
<text x="1307.0" y="747.0" text-anchor="start" font-family="Inter, Segoe UI, Arial, sans-serif" font-size="20" font-weight="760" fill="#1e293b" >skeletal structure</text>
<text x="1307.0" y="772.0" text-anchor="start" font-family="Inter, Segoe UI, Arial, sans-serif" font-size="17" font-weight="400" fill="#64748b" >Bone</text>
<text x="80.0" y="842.0" text-anchor="start" font-family="Inter, Segoe UI, Arial, sans-serif" font-size="16" font-weight="400" fill="#64748b" >Evidence anchors: MacInnis &amp; Gibala 2017; Hawley et al. 2018; Kubo et al. 2010; Bohm et al. 2019; Warden et al. 2021.</text>
</svg>