<?xml version="1.0" encoding="UTF-8"?>
<svg xmlns="http://www.w3.org/2000/svg" width="1600" height="900" viewBox="0 0 1600 900" role="img" aria-labelledby="title desc">
<title id="title">Selected GRF variables increase with faster running pace</title>
<desc id="desc">Evidence-based diagram showing selected normalized ground reaction force variables rising as running speed increases.</desc>
<rect width="1600" height="900" fill="#f8fafc"/>
<text x="80.0" y="62.0" text-anchor="start" font-family="Inter, Segoe UI, Arial, sans-serif" font-size="34" font-weight="860" fill="#102033" >Selected Ground Reaction Force Variables vs Pace</text>
<text x="80.0" y="97.0" text-anchor="start" font-family="Inter, Segoe UI, Arial, sans-serif" font-size="19" font-weight="400" fill="#64748b" >Jiang et al. 2024: peak propulsive force, VALR, and peak vertical impact force increased linearly with speed.</text>
<rect x="150" y="145" width="1320" height="540" rx="12" fill="#ffffff" stroke="#d9e2ec" stroke-width="2"/>
<rect x="150.0" y="145" width="440.0" height="540" fill="#ecfeff" opacity="0.72"/>
<text x="370.0" y="193.0" text-anchor="middle" font-family="Inter, Segoe UI, Arial, sans-serif" font-size="18" font-weight="740" fill="#64748b" >lower speed</text>
<rect x="590.0" y="145" width="509.5" height="540" fill="#f0fdf4" opacity="0.72"/>
<text x="844.7" y="193.0" text-anchor="middle" font-family="Inter, Segoe UI, Arial, sans-serif" font-size="18" font-weight="740" fill="#64748b" >moderate speed</text>
<rect x="1099.5" y="145" width="370.5" height="540" fill="#fff1f2" opacity="0.72"/>
<text x="1284.7" y="193.0" text-anchor="middle" font-family="Inter, Segoe UI, Arial, sans-serif" font-size="18" font-weight="740" fill="#64748b" >higher speed</text>
<line x1="335.3" y1="145" x2="335.3" y2="685" stroke="#e2e8f0" stroke-width="2"/>
<text x="335.3" y="724.0" text-anchor="middle" font-family="Inter, Segoe UI, Arial, sans-serif" font-size="18" font-weight="400" fill="#64748b" >6:00/km</text>
<line x1="566.8" y1="145" x2="566.8" y2="685" stroke="#e2e8f0" stroke-width="2"/>
<text x="566.8" y="724.0" text-anchor="middle" font-family="Inter, Segoe UI, Arial, sans-serif" font-size="18" font-weight="400" fill="#64748b" >5:30/km</text>
<line x1="798.4" y1="145" x2="798.4" y2="685" stroke="#e2e8f0" stroke-width="2"/>
<text x="798.4" y="724.0" text-anchor="middle" font-family="Inter, Segoe UI, Arial, sans-serif" font-size="18" font-weight="400" fill="#64748b" >5:00/km</text>
<line x1="1030.0" y1="145" x2="1030.0" y2="685" stroke="#e2e8f0" stroke-width="2"/>
<text x="1030.0" y="724.0" text-anchor="middle" font-family="Inter, Segoe UI, Arial, sans-serif" font-size="18" font-weight="400" fill="#64748b" >4:30/km</text>
<line x1="1261.6" y1="145" x2="1261.6" y2="685" stroke="#e2e8f0" stroke-width="2"/>
<text x="1261.6" y="724.0" text-anchor="middle" font-family="Inter, Segoe UI, Arial, sans-serif" font-size="18" font-weight="400" fill="#64748b" >4:00/km</text>
<line x1="1377.4" y1="145" x2="1377.4" y2="685" stroke="#e2e8f0" stroke-width="2"/>
<text x="1377.4" y="724.0" text-anchor="middle" font-family="Inter, Segoe UI, Arial, sans-serif" font-size="18" font-weight="400" fill="#64748b" >3:45/km</text>
<line x1="150" y1="577.0" x2="1470" y2="577.0" stroke="#edf2f7" stroke-width="2"/>
<line x1="150" y1="469.0" x2="1470" y2="469.0" stroke="#edf2f7" stroke-width="2"/>
<line x1="150" y1="361.0" x2="1470" y2="361.0" stroke="#edf2f7" stroke-width="2"/>
<line x1="150" y1="253.0" x2="1470" y2="253.0" stroke="#edf2f7" stroke-width="2"/>
<line x1="150" y1="145.0" x2="1470" y2="145.0" stroke="#edf2f7" stroke-width="2"/>
<line x1="150" y1="685" x2="1470" y2="685" stroke="#243447" stroke-width="3"/>
<line x1="150" y1="145" x2="150" y2="685" stroke="#243447" stroke-width="3"/>
<text x="810.0" y="875.0" text-anchor="middle" font-family="Inter, Segoe UI, Arial, sans-serif" font-size="24" font-weight="760" fill="#1f2937" >running pace (faster to the right)</text>
<text x="43.0" y="435.0" text-anchor="middle" font-family="Inter, Segoe UI, Arial, sans-serif" font-size="23" font-weight="760" fill="#1f2937" transform="rotate(-90 43 435)">normalized selected GRF variables</text>
<path d="M 150.0 685.0 L 150.0 587.8 L 156.0 586.8 L 162.0 585.9 L 168.0 584.9 L 174.0 584.0 L 180.0 583.0 L 186.0 582.0 L 192.0 581.0 L 198.0 580.1 L 204.0 579.1 L 210.0 578.1 L 216.0 577.1 L 222.0 576.1 L 228.0 575.1 L 234.0 574.1 L 240.0 573.1 L 246.0 572.0 L 252.0 571.0 L 258.0 570.0 L 264.0 569.0 L 270.0 567.9 L 276.0 566.9 L 282.0 565.9 L 288.0 564.8 L 294.0 563.8 L 300.0 562.7 L 306.0 561.6 L 312.0 560.6 L 318.0 559.5 L 324.0 558.4 L 330.0 557.4 L 336.0 556.3 L 342.0 555.2 L 348.0 554.1 L 354.0 553.0 L 360.0 551.9 L 366.0 550.8 L 372.0 549.7 L 378.0 548.6 L 384.0 547.4 L 390.0 546.3 L 396.0 545.2 L 402.0 544.1 L 408.0 542.9 L 414.0 541.8 L 420.0 540.6 L 426.0 539.5 L 432.0 538.3 L 438.0 537.1 L 444.0 536.0 L 450.0 534.8 L 456.0 533.6 L 462.0 532.4 L 468.0 531.2 L 474.0 530.0 L 480.0 528.8 L 486.0 527.6 L 492.0 526.4 L 498.0 525.2 L 504.0 523.9 L 510.0 522.7 L 516.0 521.5 L 522.0 520.2 L 528.0 519.0 L 534.0 517.7 L 540.0 516.5 L 546.0 515.2 L 552.0 513.9 L 558.0 512.6 L 564.0 511.4 L 570.0 510.1 L 576.0 508.8 L 582.0 507.5 L 588.0 506.2 L 594.0 504.8 L 600.0 503.5 L 606.0 502.2 L 612.0 500.9 L 618.0 499.5 L 624.0 498.2 L 630.0 496.8 L 636.0 495.5 L 642.0 494.1 L 648.0 492.7 L 654.0 491.3 L 660.0 490.0 L 666.0 488.6 L 672.0 487.2 L 678.0 485.8 L 684.0 484.3 L 690.0 482.9 L 696.0 481.5 L 702.0 480.1 L 708.0 478.6 L 714.0 477.2 L 720.0 475.7 L 726.0 474.2 L 732.0 472.8 L 738.0 471.3 L 744.0 469.8 L 750.0 468.3 L 756.0 466.8 L 762.0 465.3 L 768.0 463.8 L 774.0 462.3 L 780.0 460.7 L 786.0 459.2 L 792.0 457.6 L 798.0 456.1 L 804.0 454.5 L 810.0 452.9 L 816.0 451.4 L 822.0 449.8 L 828.0 448.2 L 834.0 446.6 L 840.0 444.9 L 846.0 443.3 L 852.0 441.7 L 858.0 440.0 L 864.0 438.4 L 870.0 436.7 L 876.0 435.1 L 882.0 433.4 L 888.0 431.7 L 894.0 430.0 L 900.0 428.3 L 906.0 426.6 L 912.0 424.9 L 918.0 423.1 L 924.0 421.4 L 930.0 419.7 L 936.0 417.9 L 942.0 416.1 L 948.0 414.3 L 954.0 412.6 L 960.0 410.8 L 966.0 409.0 L 972.0 407.1 L 978.0 405.3 L 984.0 403.5 L 990.0 401.6 L 996.0 399.7 L 1002.0 397.9 L 1008.0 396.0 L 1014.0 394.1 L 1020.0 392.2 L 1026.0 390.3 L 1032.0 388.4 L 1038.0 386.4 L 1044.0 384.5 L 1050.0 382.5 L 1056.0 380.5 L 1062.0 378.6 L 1068.0 376.6 L 1074.0 374.6 L 1080.0 372.5 L 1086.0 370.5 L 1092.0 368.5 L 1098.0 366.4 L 1104.0 364.3 L 1110.0 362.3 L 1116.0 360.2 L 1122.0 358.1 L 1128.0 356.0 L 1134.0 353.8 L 1140.0 351.7 L 1146.0 349.5 L 1152.0 347.4 L 1158.0 345.2 L 1164.0 343.0 L 1170.0 340.8 L 1176.0 338.6 L 1182.0 336.3 L 1188.0 334.1 L 1194.0 331.8 L 1200.0 329.5 L 1206.0 327.2 L 1212.0 324.9 L 1218.0 322.6 L 1224.0 320.3 L 1230.0 317.9 L 1236.0 315.6 L 1242.0 313.2 L 1248.0 310.8 L 1254.0 308.4 L 1260.0 305.9 L 1266.0 303.5 L 1272.0 301.0 L 1278.0 298.6 L 1284.0 296.1 L 1290.0 293.6 L 1296.0 291.0 L 1302.0 288.5 L 1308.0 285.9 L 1314.0 283.4 L 1320.0 280.8 L 1326.0 278.2 L 1332.0 275.5 L 1338.0 272.9 L 1344.0 270.2 L 1350.0 267.5 L 1356.0 264.8 L 1362.0 262.1 L 1368.0 259.4 L 1374.0 256.6 L 1380.0 253.9 L 1386.0 251.1 L 1392.0 248.2 L 1398.0 245.4 L 1404.0 242.6 L 1410.0 239.7 L 1416.0 236.8 L 1422.0 233.9 L 1428.0 230.9 L 1434.0 228.0 L 1440.0 225.0 L 1446.0 222.0 L 1452.0 219.0 L 1458.0 216.0 L 1464.0 212.9 L 1470.0 209.8 L 1470.0 685.0 Z" fill="#0ea5e9" opacity="0.13"/>
<path d="M 150.0 587.8 L 156.0 586.8 L 162.0 585.9 L 168.0 584.9 L 174.0 584.0 L 180.0 583.0 L 186.0 582.0 L 192.0 581.0 L 198.0 580.1 L 204.0 579.1 L 210.0 578.1 L 216.0 577.1 L 222.0 576.1 L 228.0 575.1 L 234.0 574.1 L 240.0 573.1 L 246.0 572.0 L 252.0 571.0 L 258.0 570.0 L 264.0 569.0 L 270.0 567.9 L 276.0 566.9 L 282.0 565.9 L 288.0 564.8 L 294.0 563.8 L 300.0 562.7 L 306.0 561.6 L 312.0 560.6 L 318.0 559.5 L 324.0 558.4 L 330.0 557.4 L 336.0 556.3 L 342.0 555.2 L 348.0 554.1 L 354.0 553.0 L 360.0 551.9 L 366.0 550.8 L 372.0 549.7 L 378.0 548.6 L 384.0 547.4 L 390.0 546.3 L 396.0 545.2 L 402.0 544.1 L 408.0 542.9 L 414.0 541.8 L 420.0 540.6 L 426.0 539.5 L 432.0 538.3 L 438.0 537.1 L 444.0 536.0 L 450.0 534.8 L 456.0 533.6 L 462.0 532.4 L 468.0 531.2 L 474.0 530.0 L 480.0 528.8 L 486.0 527.6 L 492.0 526.4 L 498.0 525.2 L 504.0 523.9 L 510.0 522.7 L 516.0 521.5 L 522.0 520.2 L 528.0 519.0 L 534.0 517.7 L 540.0 516.5 L 546.0 515.2 L 552.0 513.9 L 558.0 512.6 L 564.0 511.4 L 570.0 510.1 L 576.0 508.8 L 582.0 507.5 L 588.0 506.2 L 594.0 504.8 L 600.0 503.5 L 606.0 502.2 L 612.0 500.9 L 618.0 499.5 L 624.0 498.2 L 630.0 496.8 L 636.0 495.5 L 642.0 494.1 L 648.0 492.7 L 654.0 491.3 L 660.0 490.0 L 666.0 488.6 L 672.0 487.2 L 678.0 485.8 L 684.0 484.3 L 690.0 482.9 L 696.0 481.5 L 702.0 480.1 L 708.0 478.6 L 714.0 477.2 L 720.0 475.7 L 726.0 474.2 L 732.0 472.8 L 738.0 471.3 L 744.0 469.8 L 750.0 468.3 L 756.0 466.8 L 762.0 465.3 L 768.0 463.8 L 774.0 462.3 L 780.0 460.7 L 786.0 459.2 L 792.0 457.6 L 798.0 456.1 L 804.0 454.5 L 810.0 452.9 L 816.0 451.4 L 822.0 449.8 L 828.0 448.2 L 834.0 446.6 L 840.0 444.9 L 846.0 443.3 L 852.0 441.7 L 858.0 440.0 L 864.0 438.4 L 870.0 436.7 L 876.0 435.1 L 882.0 433.4 L 888.0 431.7 L 894.0 430.0 L 900.0 428.3 L 906.0 426.6 L 912.0 424.9 L 918.0 423.1 L 924.0 421.4 L 930.0 419.7 L 936.0 417.9 L 942.0 416.1 L 948.0 414.3 L 954.0 412.6 L 960.0 410.8 L 966.0 409.0 L 972.0 407.1 L 978.0 405.3 L 984.0 403.5 L 990.0 401.6 L 996.0 399.7 L 1002.0 397.9 L 1008.0 396.0 L 1014.0 394.1 L 1020.0 392.2 L 1026.0 390.3 L 1032.0 388.4 L 1038.0 386.4 L 1044.0 384.5 L 1050.0 382.5 L 1056.0 380.5 L 1062.0 378.6 L 1068.0 376.6 L 1074.0 374.6 L 1080.0 372.5 L 1086.0 370.5 L 1092.0 368.5 L 1098.0 366.4 L 1104.0 364.3 L 1110.0 362.3 L 1116.0 360.2 L 1122.0 358.1 L 1128.0 356.0 L 1134.0 353.8 L 1140.0 351.7 L 1146.0 349.5 L 1152.0 347.4 L 1158.0 345.2 L 1164.0 343.0 L 1170.0 340.8 L 1176.0 338.6 L 1182.0 336.3 L 1188.0 334.1 L 1194.0 331.8 L 1200.0 329.5 L 1206.0 327.2 L 1212.0 324.9 L 1218.0 322.6 L 1224.0 320.3 L 1230.0 317.9 L 1236.0 315.6 L 1242.0 313.2 L 1248.0 310.8 L 1254.0 308.4 L 1260.0 305.9 L 1266.0 303.5 L 1272.0 301.0 L 1278.0 298.6 L 1284.0 296.1 L 1290.0 293.6 L 1296.0 291.0 L 1302.0 288.5 L 1308.0 285.9 L 1314.0 283.4 L 1320.0 280.8 L 1326.0 278.2 L 1332.0 275.5 L 1338.0 272.9 L 1344.0 270.2 L 1350.0 267.5 L 1356.0 264.8 L 1362.0 262.1 L 1368.0 259.4 L 1374.0 256.6 L 1380.0 253.9 L 1386.0 251.1 L 1392.0 248.2 L 1398.0 245.4 L 1404.0 242.6 L 1410.0 239.7 L 1416.0 236.8 L 1422.0 233.9 L 1428.0 230.9 L 1434.0 228.0 L 1440.0 225.0 L 1446.0 222.0 L 1452.0 219.0 L 1458.0 216.0 L 1464.0 212.9 L 1470.0 209.8" fill="none" stroke="#0891b2" stroke-width="8" stroke-linecap="round" stroke-linejoin="round"/>
<circle cx="335.3" cy="556.4" r="9" fill="#ffffff" stroke="#0891b2" stroke-width="5"/>
<text x="335.3" y="534.4" text-anchor="middle" font-family="Inter, Segoe UI, Arial, sans-serif" font-size="15" font-weight="720" fill="#334155" >10 km/h</text>
<circle cx="587.9" cy="506.2" r="9" fill="#ffffff" stroke="#0891b2" stroke-width="5"/>
<text x="587.9" y="484.2" text-anchor="middle" font-family="Inter, Segoe UI, Arial, sans-serif" font-size="15" font-weight="720" fill="#334155" >11 km/h</text>
<circle cx="798.4" cy="456.0" r="9" fill="#ffffff" stroke="#0891b2" stroke-width="5"/>
<text x="798.4" y="434.0" text-anchor="middle" font-family="Inter, Segoe UI, Arial, sans-serif" font-size="15" font-weight="720" fill="#334155" >12 km/h</text>
<circle cx="976.6" cy="405.7" r="9" fill="#ffffff" stroke="#0891b2" stroke-width="5"/>
<text x="976.6" y="383.7" text-anchor="middle" font-family="Inter, Segoe UI, Arial, sans-serif" font-size="15" font-weight="720" fill="#334155" >13 km/h</text>
<circle cx="1129.2" cy="355.5" r="9" fill="#ffffff" stroke="#0891b2" stroke-width="5"/>
<text x="1129.2" y="333.5" text-anchor="middle" font-family="Inter, Segoe UI, Arial, sans-serif" font-size="15" font-weight="720" fill="#334155" >14 km/h</text>
<circle cx="1261.6" cy="305.3" r="9" fill="#ffffff" stroke="#0891b2" stroke-width="5"/>
<text x="1261.6" y="283.3" text-anchor="middle" font-family="Inter, Segoe UI, Arial, sans-serif" font-size="15" font-weight="720" fill="#334155" >15 km/h</text>
<circle cx="1377.4" cy="255.1" r="9" fill="#ffffff" stroke="#0891b2" stroke-width="5"/>
<text x="1377.4" y="233.1" text-anchor="middle" font-family="Inter, Segoe UI, Arial, sans-serif" font-size="15" font-weight="720" fill="#334155" >16 km/h</text>
<text x="80.0" y="822.0" text-anchor="start" font-family="Inter, Segoe UI, Arial, sans-serif" font-size="16" font-weight="400" fill="#64748b" >Evidence anchor: Jiang et al. 2024 measured GRF variables at 10-16 km/h. Peak propulsive force (r=0.627), VALR (r=0.639), and peak vertical impact force (r=0.691) increased linearly with speed.</text>
</svg>