<?xml version="1.0" encoding="UTF-8"?>
<svg xmlns="http://www.w3.org/2000/svg" width="1600" height="900" viewBox="0 0 1600 900" role="img" aria-labelledby="title desc">
<title id="title">Mechanical load increases with faster running pace</title>
<desc id="desc">Conceptual diagram showing normalized external mechanical load rising as running pace gets faster.</desc>
<rect width="1600" height="900" fill="#f8fafc"/>
<text x="80.0" y="62.0" text-anchor="start" font-family="Inter, Segoe UI, Arial, sans-serif" font-size="36" font-weight="860" fill="#102033" >Mechanical Load vs Pace</text>
<text x="80.0" y="97.0" text-anchor="start" font-family="Inter, Segoe UI, Arial, sans-serif" font-size="19" font-weight="400" fill="#64748b" >Conceptual synthesis: faster pace increases external mechanical exposure, even when internal effort varies.</text>
<rect x="150" y="145" width="1320" height="540" rx="12" fill="#ffffff" stroke="#d9e2ec" stroke-width="2"/>
<rect x="150.0" y="145" width="561.0" height="540" fill="#ecfeff" opacity="0.72"/>
<text x="430.5" y="193.0" text-anchor="middle" font-family="Inter, Segoe UI, Arial, sans-serif" font-size="18" font-weight="740" fill="#64748b" >easy / low load</text>
<rect x="711.0" y="145" width="363.0" height="540" fill="#f0fdf4" opacity="0.72"/>
<text x="892.5" y="193.0" text-anchor="middle" font-family="Inter, Segoe UI, Arial, sans-serif" font-size="18" font-weight="740" fill="#64748b" >steady / moderate</text>
<rect x="1074.0" y="145" width="396.0" height="540" fill="#fff1f2" opacity="0.72"/>
<text x="1272.0" y="193.0" text-anchor="middle" font-family="Inter, Segoe UI, Arial, sans-serif" font-size="18" font-weight="740" fill="#64748b" >fast / high load</text>
<line x1="150.0" y1="145" x2="150.0" y2="685" stroke="#e2e8f0" stroke-width="2"/>
<text x="150.0" y="724.0" text-anchor="middle" font-family="Inter, Segoe UI, Arial, sans-serif" font-size="18" font-weight="400" fill="#64748b" >7:00/km</text>
<line x1="480.0" y1="145" x2="480.0" y2="685" stroke="#e2e8f0" stroke-width="2"/>
<text x="480.0" y="724.0" text-anchor="middle" font-family="Inter, Segoe UI, Arial, sans-serif" font-size="18" font-weight="400" fill="#64748b" >6:00/km</text>
<line x1="810.0" y1="145" x2="810.0" y2="685" stroke="#e2e8f0" stroke-width="2"/>
<text x="810.0" y="724.0" text-anchor="middle" font-family="Inter, Segoe UI, Arial, sans-serif" font-size="18" font-weight="400" fill="#64748b" >5:00/km</text>
<line x1="1140.0" y1="145" x2="1140.0" y2="685" stroke="#e2e8f0" stroke-width="2"/>
<text x="1140.0" y="724.0" text-anchor="middle" font-family="Inter, Segoe UI, Arial, sans-serif" font-size="18" font-weight="400" fill="#64748b" >4:00/km</text>
<line x1="1305.0" y1="145" x2="1305.0" y2="685" stroke="#e2e8f0" stroke-width="2"/>
<text x="1305.0" y="724.0" text-anchor="middle" font-family="Inter, Segoe UI, Arial, sans-serif" font-size="18" font-weight="400" fill="#64748b" >3:30/km</text>
<line x1="1470.0" y1="145" x2="1470.0" y2="685" stroke="#e2e8f0" stroke-width="2"/>
<text x="1470.0" y="724.0" text-anchor="middle" font-family="Inter, Segoe UI, Arial, sans-serif" font-size="18" font-weight="400" fill="#64748b" >3:00/km</text>
<line x1="150" y1="577.0" x2="1470" y2="577.0" stroke="#edf2f7" stroke-width="2"/>
<line x1="150" y1="469.0" x2="1470" y2="469.0" stroke="#edf2f7" stroke-width="2"/>
<line x1="150" y1="361.0" x2="1470" y2="361.0" stroke="#edf2f7" stroke-width="2"/>
<line x1="150" y1="253.0" x2="1470" y2="253.0" stroke="#edf2f7" stroke-width="2"/>
<line x1="150" y1="145.0" x2="1470" y2="145.0" stroke="#edf2f7" stroke-width="2"/>
<line x1="150" y1="685" x2="1470" y2="685" stroke="#243447" stroke-width="3"/>
<line x1="150" y1="145" x2="150" y2="685" stroke="#243447" stroke-width="3"/>
<text x="810.0" y="875.0" text-anchor="middle" font-family="Inter, Segoe UI, Arial, sans-serif" font-size="24" font-weight="760" fill="#1f2937" >running pace (faster to the right)</text>
<text x="43.0" y="435.0" text-anchor="middle" font-family="Inter, Segoe UI, Arial, sans-serif" font-size="23" font-weight="760" fill="#1f2937" transform="rotate(-90 43 435)">normalized mechanical exposure</text>
<path d="M 150.0 685.0 L 150.0 598.6 L 156.0 598.6 L 162.0 598.5 L 168.0 598.4 L 174.0 598.3 L 180.0 598.1 L 186.0 598.0 L 192.0 597.8 L 198.0 597.6 L 204.0 597.5 L 210.0 597.3 L 216.0 597.1 L 222.0 596.8 L 228.0 596.6 L 234.0 596.4 L 240.0 596.1 L 246.0 595.9 L 252.0 595.6 L 258.0 595.4 L 264.0 595.1 L 270.0 594.8 L 276.0 594.5 L 282.0 594.2 L 288.0 593.9 L 294.0 593.6 L 300.0 593.2 L 306.0 592.9 L 312.0 592.6 L 318.0 592.2 L 324.0 591.8 L 330.0 591.5 L 336.0 591.1 L 342.0 590.7 L 348.0 590.3 L 354.0 589.9 L 360.0 589.5 L 366.0 589.1 L 372.0 588.7 L 378.0 588.2 L 384.0 587.8 L 390.0 587.3 L 396.0 586.9 L 402.0 586.4 L 408.0 585.9 L 414.0 585.4 L 420.0 585.0 L 426.0 584.4 L 432.0 583.9 L 438.0 583.4 L 444.0 582.9 L 450.0 582.4 L 456.0 581.8 L 462.0 581.3 L 468.0 580.7 L 474.0 580.1 L 480.0 579.5 L 486.0 578.9 L 492.0 578.3 L 498.0 577.7 L 504.0 577.1 L 510.0 576.5 L 516.0 575.8 L 522.0 575.2 L 528.0 574.5 L 534.0 573.9 L 540.0 573.2 L 546.0 572.5 L 552.0 571.8 L 558.0 571.1 L 564.0 570.4 L 570.0 569.7 L 576.0 568.9 L 582.0 568.2 L 588.0 567.4 L 594.0 566.7 L 600.0 565.9 L 606.0 565.1 L 612.0 564.3 L 618.0 563.5 L 624.0 562.6 L 630.0 561.8 L 636.0 561.0 L 642.0 560.1 L 648.0 559.2 L 654.0 558.3 L 660.0 557.4 L 666.0 556.5 L 672.0 555.6 L 678.0 554.7 L 684.0 553.7 L 690.0 552.8 L 696.0 551.8 L 702.0 550.8 L 708.0 549.8 L 714.0 548.8 L 720.0 547.8 L 726.0 546.8 L 732.0 545.7 L 738.0 544.7 L 744.0 543.6 L 750.0 542.5 L 756.0 541.4 L 762.0 540.3 L 768.0 539.1 L 774.0 538.0 L 780.0 536.8 L 786.0 535.6 L 792.0 534.4 L 798.0 533.2 L 804.0 532.0 L 810.0 530.7 L 816.0 529.5 L 822.0 528.2 L 828.0 526.9 L 834.0 525.6 L 840.0 524.3 L 846.0 522.9 L 852.0 521.6 L 858.0 520.2 L 864.0 518.8 L 870.0 517.4 L 876.0 515.9 L 882.0 514.5 L 888.0 513.0 L 894.0 511.5 L 900.0 510.0 L 906.0 508.5 L 912.0 506.9 L 918.0 505.4 L 924.0 503.8 L 930.0 502.2 L 936.0 500.5 L 942.0 498.9 L 948.0 497.2 L 954.0 495.5 L 960.0 493.8 L 966.0 492.0 L 972.0 490.2 L 978.0 488.5 L 984.0 486.6 L 990.0 484.8 L 996.0 482.9 L 1002.0 481.0 L 1008.0 479.1 L 1014.0 477.2 L 1020.0 475.2 L 1026.0 473.2 L 1032.0 471.2 L 1038.0 469.2 L 1044.0 467.1 L 1050.0 465.0 L 1056.0 462.9 L 1062.0 460.7 L 1068.0 458.5 L 1074.0 456.3 L 1080.0 454.0 L 1086.0 451.8 L 1092.0 449.5 L 1098.0 447.1 L 1104.0 444.7 L 1110.0 442.3 L 1116.0 439.9 L 1122.0 437.4 L 1128.0 434.9 L 1134.0 432.4 L 1140.0 429.8 L 1146.0 427.2 L 1152.0 424.5 L 1158.0 421.8 L 1164.0 419.1 L 1170.0 416.3 L 1176.0 413.5 L 1182.0 410.7 L 1188.0 407.8 L 1194.0 404.9 L 1200.0 401.9 L 1206.0 398.9 L 1212.0 395.9 L 1218.0 392.8 L 1224.0 389.6 L 1230.0 386.4 L 1236.0 383.2 L 1242.0 379.9 L 1248.0 376.6 L 1254.0 373.2 L 1260.0 369.8 L 1266.0 366.3 L 1272.0 362.8 L 1278.0 359.2 L 1284.0 355.6 L 1290.0 351.9 L 1296.0 348.1 L 1302.0 344.3 L 1308.0 340.5 L 1314.0 336.6 L 1320.0 332.6 L 1326.0 328.5 L 1332.0 324.4 L 1338.0 320.3 L 1344.0 316.0 L 1350.0 311.7 L 1356.0 307.4 L 1362.0 303.0 L 1368.0 298.5 L 1374.0 293.9 L 1380.0 289.2 L 1386.0 284.5 L 1392.0 279.7 L 1398.0 274.9 L 1404.0 269.9 L 1410.0 264.9 L 1416.0 259.8 L 1422.0 254.6 L 1428.0 249.3 L 1434.0 243.9 L 1440.0 238.5 L 1446.0 232.9 L 1452.0 227.3 L 1458.0 221.6 L 1464.0 215.7 L 1470.0 209.8 L 1470.0 685.0 Z" fill="#0ea5e9" opacity="0.13"/>
<path d="M 150.0 598.6 L 156.0 598.6 L 162.0 598.5 L 168.0 598.4 L 174.0 598.3 L 180.0 598.1 L 186.0 598.0 L 192.0 597.8 L 198.0 597.6 L 204.0 597.5 L 210.0 597.3 L 216.0 597.1 L 222.0 596.8 L 228.0 596.6 L 234.0 596.4 L 240.0 596.1 L 246.0 595.9 L 252.0 595.6 L 258.0 595.4 L 264.0 595.1 L 270.0 594.8 L 276.0 594.5 L 282.0 594.2 L 288.0 593.9 L 294.0 593.6 L 300.0 593.2 L 306.0 592.9 L 312.0 592.6 L 318.0 592.2 L 324.0 591.8 L 330.0 591.5 L 336.0 591.1 L 342.0 590.7 L 348.0 590.3 L 354.0 589.9 L 360.0 589.5 L 366.0 589.1 L 372.0 588.7 L 378.0 588.2 L 384.0 587.8 L 390.0 587.3 L 396.0 586.9 L 402.0 586.4 L 408.0 585.9 L 414.0 585.4 L 420.0 585.0 L 426.0 584.4 L 432.0 583.9 L 438.0 583.4 L 444.0 582.9 L 450.0 582.4 L 456.0 581.8 L 462.0 581.3 L 468.0 580.7 L 474.0 580.1 L 480.0 579.5 L 486.0 578.9 L 492.0 578.3 L 498.0 577.7 L 504.0 577.1 L 510.0 576.5 L 516.0 575.8 L 522.0 575.2 L 528.0 574.5 L 534.0 573.9 L 540.0 573.2 L 546.0 572.5 L 552.0 571.8 L 558.0 571.1 L 564.0 570.4 L 570.0 569.7 L 576.0 568.9 L 582.0 568.2 L 588.0 567.4 L 594.0 566.7 L 600.0 565.9 L 606.0 565.1 L 612.0 564.3 L 618.0 563.5 L 624.0 562.6 L 630.0 561.8 L 636.0 561.0 L 642.0 560.1 L 648.0 559.2 L 654.0 558.3 L 660.0 557.4 L 666.0 556.5 L 672.0 555.6 L 678.0 554.7 L 684.0 553.7 L 690.0 552.8 L 696.0 551.8 L 702.0 550.8 L 708.0 549.8 L 714.0 548.8 L 720.0 547.8 L 726.0 546.8 L 732.0 545.7 L 738.0 544.7 L 744.0 543.6 L 750.0 542.5 L 756.0 541.4 L 762.0 540.3 L 768.0 539.1 L 774.0 538.0 L 780.0 536.8 L 786.0 535.6 L 792.0 534.4 L 798.0 533.2 L 804.0 532.0 L 810.0 530.7 L 816.0 529.5 L 822.0 528.2 L 828.0 526.9 L 834.0 525.6 L 840.0 524.3 L 846.0 522.9 L 852.0 521.6 L 858.0 520.2 L 864.0 518.8 L 870.0 517.4 L 876.0 515.9 L 882.0 514.5 L 888.0 513.0 L 894.0 511.5 L 900.0 510.0 L 906.0 508.5 L 912.0 506.9 L 918.0 505.4 L 924.0 503.8 L 930.0 502.2 L 936.0 500.5 L 942.0 498.9 L 948.0 497.2 L 954.0 495.5 L 960.0 493.8 L 966.0 492.0 L 972.0 490.2 L 978.0 488.5 L 984.0 486.6 L 990.0 484.8 L 996.0 482.9 L 1002.0 481.0 L 1008.0 479.1 L 1014.0 477.2 L 1020.0 475.2 L 1026.0 473.2 L 1032.0 471.2 L 1038.0 469.2 L 1044.0 467.1 L 1050.0 465.0 L 1056.0 462.9 L 1062.0 460.7 L 1068.0 458.5 L 1074.0 456.3 L 1080.0 454.0 L 1086.0 451.8 L 1092.0 449.5 L 1098.0 447.1 L 1104.0 444.7 L 1110.0 442.3 L 1116.0 439.9 L 1122.0 437.4 L 1128.0 434.9 L 1134.0 432.4 L 1140.0 429.8 L 1146.0 427.2 L 1152.0 424.5 L 1158.0 421.8 L 1164.0 419.1 L 1170.0 416.3 L 1176.0 413.5 L 1182.0 410.7 L 1188.0 407.8 L 1194.0 404.9 L 1200.0 401.9 L 1206.0 398.9 L 1212.0 395.9 L 1218.0 392.8 L 1224.0 389.6 L 1230.0 386.4 L 1236.0 383.2 L 1242.0 379.9 L 1248.0 376.6 L 1254.0 373.2 L 1260.0 369.8 L 1266.0 366.3 L 1272.0 362.8 L 1278.0 359.2 L 1284.0 355.6 L 1290.0 351.9 L 1296.0 348.1 L 1302.0 344.3 L 1308.0 340.5 L 1314.0 336.6 L 1320.0 332.6 L 1326.0 328.5 L 1332.0 324.4 L 1338.0 320.3 L 1344.0 316.0 L 1350.0 311.7 L 1356.0 307.4 L 1362.0 303.0 L 1368.0 298.5 L 1374.0 293.9 L 1380.0 289.2 L 1386.0 284.5 L 1392.0 279.7 L 1398.0 274.9 L 1404.0 269.9 L 1410.0 264.9 L 1416.0 259.8 L 1422.0 254.6 L 1428.0 249.3 L 1434.0 243.9 L 1440.0 238.5 L 1446.0 232.9 L 1452.0 227.3 L 1458.0 221.6 L 1464.0 215.7 L 1470.0 209.8" fill="none" stroke="#0891b2" stroke-width="8" stroke-linecap="round" stroke-linejoin="round"/>
<path d="M 150.0 631.0 L 156.0 631.0 L 162.0 631.0 L 168.0 631.0 L 174.0 631.0 L 180.0 630.9 L 186.0 630.9 L 192.0 630.9 L 198.0 630.9 L 204.0 630.8 L 210.0 630.8 L 216.0 630.8 L 222.0 630.7 L 228.0 630.7 L 234.0 630.6 L 240.0 630.5 L 246.0 630.5 L 252.0 630.4 L 258.0 630.3 L 264.0 630.2 L 270.0 630.2 L 276.0 630.1 L 282.0 630.0 L 288.0 629.9 L 294.0 629.8 L 300.0 629.7 L 306.0 629.6 L 312.0 629.4 L 318.0 629.3 L 324.0 629.2 L 330.0 629.1 L 336.0 628.9 L 342.0 628.8 L 348.0 628.6 L 354.0 628.5 L 360.0 628.3 L 366.0 628.1 L 372.0 628.0 L 378.0 627.8 L 384.0 627.6 L 390.0 627.4 L 396.0 627.2 L 402.0 627.0 L 408.0 626.8 L 414.0 626.6 L 420.0 626.3 L 426.0 626.1 L 432.0 625.9 L 438.0 625.6 L 444.0 625.4 L 450.0 625.1 L 456.0 624.8 L 462.0 624.6 L 468.0 624.3 L 474.0 624.0 L 480.0 623.7 L 486.0 623.4 L 492.0 623.1 L 498.0 622.8 L 504.0 622.4 L 510.0 622.1 L 516.0 621.7 L 522.0 621.4 L 528.0 621.0 L 534.0 620.6 L 540.0 620.3 L 546.0 619.9 L 552.0 619.5 L 558.0 619.1 L 564.0 618.6 L 570.0 618.2 L 576.0 617.8 L 582.0 617.3 L 588.0 616.9 L 594.0 616.4 L 600.0 615.9 L 606.0 615.4 L 612.0 614.9 L 618.0 614.4 L 624.0 613.9 L 630.0 613.3 L 636.0 612.8 L 642.0 612.2 L 648.0 611.6 L 654.0 611.0 L 660.0 610.4 L 666.0 609.8 L 672.0 609.2 L 678.0 608.6 L 684.0 607.9 L 690.0 607.3 L 696.0 606.6 L 702.0 605.9 L 708.0 605.2 L 714.0 604.5 L 720.0 603.7 L 726.0 603.0 L 732.0 602.2 L 738.0 601.4 L 744.0 600.6 L 750.0 599.8 L 756.0 599.0 L 762.0 598.1 L 768.0 597.3 L 774.0 596.4 L 780.0 595.5 L 786.0 594.6 L 792.0 593.7 L 798.0 592.7 L 804.0 591.7 L 810.0 590.7 L 816.0 589.7 L 822.0 588.7 L 828.0 587.7 L 834.0 586.6 L 840.0 585.5 L 846.0 584.4 L 852.0 583.3 L 858.0 582.1 L 864.0 580.9 L 870.0 579.7 L 876.0 578.5 L 882.0 577.3 L 888.0 576.0 L 894.0 574.7 L 900.0 573.4 L 906.0 572.0 L 912.0 570.7 L 918.0 569.3 L 924.0 567.8 L 930.0 566.4 L 936.0 564.9 L 942.0 563.4 L 948.0 561.9 L 954.0 560.3 L 960.0 558.7 L 966.0 557.1 L 972.0 555.4 L 978.0 553.8 L 984.0 552.0 L 990.0 550.3 L 996.0 548.5 L 1002.0 546.7 L 1008.0 544.8 L 1014.0 542.9 L 1020.0 541.0 L 1026.0 539.1 L 1032.0 537.1 L 1038.0 535.0 L 1044.0 533.0 L 1050.0 530.8 L 1056.0 528.7 L 1062.0 526.5 L 1068.0 524.3 L 1074.0 522.0 L 1080.0 519.7 L 1086.0 517.3 L 1092.0 514.9 L 1098.0 512.4 L 1104.0 509.9 L 1110.0 507.4 L 1116.0 504.8 L 1122.0 502.1 L 1128.0 499.4 L 1134.0 496.6 L 1140.0 493.8 L 1146.0 491.0 L 1152.0 488.1 L 1158.0 485.1 L 1164.0 482.0 L 1170.0 479.0 L 1176.0 475.8 L 1182.0 472.6 L 1188.0 469.3 L 1194.0 466.0 L 1200.0 462.6 L 1206.0 459.1 L 1212.0 455.5 L 1218.0 451.9 L 1224.0 448.2 L 1230.0 444.5 L 1236.0 440.7 L 1242.0 436.7 L 1248.0 432.8 L 1254.0 428.7 L 1260.0 424.5 L 1266.0 420.3 L 1272.0 416.0 L 1278.0 411.6 L 1284.0 407.1 L 1290.0 402.5 L 1296.0 397.8 L 1302.0 393.1 L 1308.0 388.2 L 1314.0 383.2 L 1320.0 378.2 L 1326.0 373.0 L 1332.0 367.7 L 1338.0 362.3 L 1344.0 356.8 L 1350.0 351.2 L 1356.0 345.4 L 1362.0 339.6 L 1368.0 333.6 L 1374.0 327.5 L 1380.0 321.3 L 1386.0 314.9 L 1392.0 308.4 L 1398.0 301.7 L 1404.0 295.0 L 1410.0 288.0 L 1416.0 280.9 L 1422.0 273.7 L 1428.0 266.3 L 1434.0 258.8 L 1440.0 251.0 L 1446.0 243.2 L 1452.0 235.1 L 1458.0 226.8 L 1464.0 218.4 L 1470.0 209.8" fill="none" stroke="#dc2626" stroke-width="5" stroke-linecap="round" stroke-linejoin="round" stroke-dasharray="12 10"/>
<path d="M 150.0 609.4 L 156.0 607.5 L 162.0 605.7 L 168.0 603.8 L 174.0 601.9 L 180.0 600.0 L 186.0 598.2 L 192.0 596.3 L 198.0 594.4 L 204.0 592.5 L 210.0 590.7 L 216.0 588.8 L 222.0 586.9 L 228.0 585.1 L 234.0 583.2 L 240.0 581.3 L 246.0 579.4 L 252.0 577.6 L 258.0 575.7 L 264.0 573.8 L 270.0 572.0 L 276.0 570.1 L 282.0 568.2 L 288.0 566.4 L 294.0 564.5 L 300.0 562.6 L 306.0 560.8 L 312.0 558.9 L 318.0 557.1 L 324.0 555.2 L 330.0 553.3 L 336.0 551.5 L 342.0 549.6 L 348.0 547.8 L 354.0 545.9 L 360.0 544.1 L 366.0 542.2 L 372.0 540.4 L 378.0 538.5 L 384.0 536.7 L 390.0 534.8 L 396.0 533.0 L 402.0 531.1 L 408.0 529.3 L 414.0 527.4 L 420.0 525.6 L 426.0 523.8 L 432.0 521.9 L 438.0 520.1 L 444.0 518.3 L 450.0 516.4 L 456.0 514.6 L 462.0 512.8 L 468.0 511.0 L 474.0 509.1 L 480.0 507.3 L 486.0 505.5 L 492.0 503.7 L 498.0 501.9 L 504.0 500.0 L 510.0 498.2 L 516.0 496.4 L 522.0 494.6 L 528.0 492.8 L 534.0 491.0 L 540.0 489.2 L 546.0 487.4 L 552.0 485.6 L 558.0 483.8 L 564.0 482.0 L 570.0 480.3 L 576.0 478.5 L 582.0 476.7 L 588.0 474.9 L 594.0 473.1 L 600.0 471.4 L 606.0 469.6 L 612.0 467.8 L 618.0 466.1 L 624.0 464.3 L 630.0 462.5 L 636.0 460.8 L 642.0 459.0 L 648.0 457.3 L 654.0 455.5 L 660.0 453.8 L 666.0 452.1 L 672.0 450.3 L 678.0 448.6 L 684.0 446.9 L 690.0 445.1 L 696.0 443.4 L 702.0 441.7 L 708.0 440.0 L 714.0 438.3 L 720.0 436.6 L 726.0 434.9 L 732.0 433.2 L 738.0 431.5 L 744.0 429.8 L 750.0 428.1 L 756.0 426.5 L 762.0 424.8 L 768.0 423.1 L 774.0 421.4 L 780.0 419.8 L 786.0 418.1 L 792.0 416.5 L 798.0 414.8 L 804.0 413.2 L 810.0 411.5 L 816.0 409.9 L 822.0 408.3 L 828.0 406.7 L 834.0 405.0 L 840.0 403.4 L 846.0 401.8 L 852.0 400.2 L 858.0 398.6 L 864.0 397.0 L 870.0 395.5 L 876.0 393.9 L 882.0 392.3 L 888.0 390.7 L 894.0 389.2 L 900.0 387.6 L 906.0 386.1 L 912.0 384.5 L 918.0 383.0 L 924.0 381.5 L 930.0 379.9 L 936.0 378.4 L 942.0 376.9 L 948.0 375.4 L 954.0 373.9 L 960.0 372.4 L 966.0 370.9 L 972.0 369.4 L 978.0 368.0 L 984.0 366.5 L 990.0 365.0 L 996.0 363.6 L 1002.0 362.1 L 1008.0 360.7 L 1014.0 359.3 L 1020.0 357.9 L 1026.0 356.4 L 1032.0 355.0 L 1038.0 353.6 L 1044.0 352.2 L 1050.0 350.9 L 1056.0 349.5 L 1062.0 348.1 L 1068.0 346.7 L 1074.0 345.4 L 1080.0 344.0 L 1086.0 342.7 L 1092.0 341.4 L 1098.0 340.1 L 1104.0 338.7 L 1110.0 337.4 L 1116.0 336.1 L 1122.0 334.9 L 1128.0 333.6 L 1134.0 332.3 L 1140.0 331.0 L 1146.0 329.8 L 1152.0 328.5 L 1158.0 327.3 L 1164.0 326.1 L 1170.0 324.9 L 1176.0 323.7 L 1182.0 322.5 L 1188.0 321.3 L 1194.0 320.1 L 1200.0 318.9 L 1206.0 317.8 L 1212.0 316.6 L 1218.0 315.5 L 1224.0 314.3 L 1230.0 313.2 L 1236.0 312.1 L 1242.0 311.0 L 1248.0 309.9 L 1254.0 308.8 L 1260.0 307.8 L 1266.0 306.7 L 1272.0 305.6 L 1278.0 304.6 L 1284.0 303.6 L 1290.0 302.5 L 1296.0 301.5 L 1302.0 300.5 L 1308.0 299.5 L 1314.0 298.6 L 1320.0 297.6 L 1326.0 296.6 L 1332.0 295.7 L 1338.0 294.8 L 1344.0 293.8 L 1350.0 292.9 L 1356.0 292.0 L 1362.0 291.1 L 1368.0 290.2 L 1374.0 289.4 L 1380.0 288.5 L 1386.0 287.7 L 1392.0 286.8 L 1398.0 286.0 L 1404.0 285.2 L 1410.0 284.4 L 1416.0 283.6 L 1422.0 282.8 L 1428.0 282.0 L 1434.0 281.3 L 1440.0 280.5 L 1446.0 279.8 L 1452.0 279.1 L 1458.0 278.3 L 1464.0 277.6 L 1470.0 277.0" fill="none" stroke="#d97706" stroke-width="5" stroke-linecap="round" stroke-linejoin="round" stroke-dasharray="4 10"/>
<rect x="1212.6" y="348.6" width="238" height="42" rx="8" fill="#ffffff" opacity="0.95" stroke="#dbe4ef" stroke-width="2"/>
<text x="1227.6" y="375.6" text-anchor="start" font-family="Inter, Segoe UI, Arial, sans-serif" font-size="18" font-weight="800" fill="#0891b2" >external mechanical load</text>
<rect x="1288.5" y="410.7" width="238" height="42" rx="8" fill="#ffffff" opacity="0.95" stroke="#dbe4ef" stroke-width="2"/>
<text x="1303.5" y="437.7" text-anchor="start" font-family="Inter, Segoe UI, Arial, sans-serif" font-size="18" font-weight="800" fill="#dc2626" >loading rate sensitivity</text>
<rect x="935.4" y="399.6" width="238" height="42" rx="8" fill="#ffffff" opacity="0.95" stroke="#dbe4ef" stroke-width="2"/>
<text x="950.4" y="426.6" text-anchor="start" font-family="Inter, Segoe UI, Arial, sans-serif" font-size="18" font-weight="800" fill="#d97706" >muscle-tendon demand</text>
<rect x="190" y="205" width="380" height="170" rx="10" fill="#ffffff" stroke="#dbe4ef" stroke-width="2"/>
<rect x="190" y="205" width="8" height="170" rx="4" fill="#0891b2"/>
<text x="214.0" y="244.0" text-anchor="start" font-family="Inter, Segoe UI, Arial, sans-serif" font-size="24" font-weight="850" fill="#0f172a" >Why pace matters</text>
<text x="214.0" y="281.0" text-anchor="start" font-family="Inter, Segoe UI, Arial, sans-serif" font-size="19" font-weight="400" fill="#475569" >Pace is not perfect, but it is an</text>
<text x="214.0" y="305.0" text-anchor="start" font-family="Inter, Segoe UI, Arial, sans-serif" font-size="19" font-weight="400" fill="#475569" >external load target: faster running</text>
<text x="214.0" y="329.0" text-anchor="start" font-family="Inter, Segoe UI, Arial, sans-serif" font-size="19" font-weight="400" fill="#475569" >usually means higher impact forces,</text>
<text x="214.0" y="353.0" text-anchor="start" font-family="Inter, Segoe UI, Arial, sans-serif" font-size="19" font-weight="400" fill="#475569" >loading rates, and elastic tissue</text>
<text x="214.0" y="377.0" text-anchor="start" font-family="Inter, Segoe UI, Arial, sans-serif" font-size="19" font-weight="400" fill="#475569" >demand.</text>
<rect x="1010" y="192" width="390" height="134" rx="10" fill="#ffffff" stroke="#dbe4ef" stroke-width="2"/>
<rect x="1010" y="192" width="8" height="134" rx="4" fill="#7c3aed"/>
<text x="1034.0" y="230.0" text-anchor="start" font-family="Inter, Segoe UI, Arial, sans-serif" font-size="23" font-weight="850" fill="#0f172a" >Interpretation</text>
<text x="1034.0" y="264.0" text-anchor="start" font-family="Inter, Segoe UI, Arial, sans-serif" font-size="18" font-weight="400" fill="#475569" >Heart rate describes internal strain.</text>
<text x="1034.0" y="287.0" text-anchor="start" font-family="Inter, Segoe UI, Arial, sans-serif" font-size="18" font-weight="400" fill="#475569" >Pace constrains how much high-speed</text>
<text x="1034.0" y="310.0" text-anchor="start" font-family="Inter, Segoe UI, Arial, sans-serif" font-size="18" font-weight="400" fill="#475569" >impact is repeated.</text>
<text x="80.0" y="822.0" text-anchor="start" font-family="Inter, Segoe UI, Arial, sans-serif" font-size="16" font-weight="400" fill="#64748b" >Evidence anchors: Jiang et al. 2024 on speed-dependent GRF changes; Papagiannaki et al. 2020 on repetitive impact mechanics; Warden et al. 2021 on workload and bone stress.</text>
</svg>