<?xml version="1.0" encoding="UTF-8"?>
<svg xmlns="http://www.w3.org/2000/svg" width="1600" height="900" viewBox="0 0 1600 900" role="img" aria-labelledby="title desc">
<title id="title">Workload curve with Daniels/VDOT and Critical Speed</title>
<desc id="desc">Didactic diagram with Critical Speed, D-prime region, and Daniels pace markers.</desc>
<rect width="1600" height="900" fill="#f8fafc"/>
<text x="80.0" y="58.0" text-anchor="start" font-family="Inter, Segoe UI, Arial, sans-serif" font-size="34" font-weight="800" fill="#14213d" >Workload Curve: Daniels/VDOT and Critical Speed</text>
<text x="80.0" y="91.0" text-anchor="start" font-family="Inter, Segoe UI, Arial, sans-serif" font-size="19" font-weight="400" fill="#5f6f7f" >Didactic model: speed relative to CS, not an individual diagnostic curve</text>
<rect x="145" y="105" width="1340" height="625" rx="12" fill="#ffffff" stroke="#d9e2ec" stroke-width="2"/>
<rect x="145.0" y="105" width="783.8" height="625" fill="#eaf7ef"/>
<rect x="928.8" y="105" width="177.0" height="625" fill="#fff4d6"/>
<rect x="1105.8" y="105" width="379.2" height="625" fill="#fdecea"/>
<line x1="271.4" y1="105" x2="271.4" y2="730" stroke="#e8eef5" stroke-width="2"/>
<text x="271.4" y="769.0" text-anchor="middle" font-family="Inter, Segoe UI, Arial, sans-serif" font-size="19" font-weight="400" fill="#66788a" >70%</text>
<line x1="524.2" y1="105" x2="524.2" y2="730" stroke="#e8eef5" stroke-width="2"/>
<text x="524.2" y="769.0" text-anchor="middle" font-family="Inter, Segoe UI, Arial, sans-serif" font-size="19" font-weight="400" fill="#66788a" >80%</text>
<line x1="777.1" y1="105" x2="777.1" y2="730" stroke="#e8eef5" stroke-width="2"/>
<text x="777.1" y="769.0" text-anchor="middle" font-family="Inter, Segoe UI, Arial, sans-serif" font-size="19" font-weight="400" fill="#66788a" >90%</text>
<line x1="1029.9" y1="105" x2="1029.9" y2="730" stroke="#e8eef5" stroke-width="2"/>
<text x="1029.9" y="769.0" text-anchor="middle" font-family="Inter, Segoe UI, Arial, sans-serif" font-size="19" font-weight="400" fill="#66788a" >100%</text>
<line x1="1282.7" y1="105" x2="1282.7" y2="730" stroke="#e8eef5" stroke-width="2"/>
<text x="1282.7" y="769.0" text-anchor="middle" font-family="Inter, Segoe UI, Arial, sans-serif" font-size="19" font-weight="400" fill="#66788a" >110%</text>
<line x1="145" y1="605.0" x2="1485" y2="605.0" stroke="#edf2f7" stroke-width="2"/>
<line x1="145" y1="480.0" x2="1485" y2="480.0" stroke="#edf2f7" stroke-width="2"/>
<line x1="145" y1="355.0" x2="1485" y2="355.0" stroke="#edf2f7" stroke-width="2"/>
<line x1="145" y1="230.0" x2="1485" y2="230.0" stroke="#edf2f7" stroke-width="2"/>
<path d="M 1029.9 730.0 L 1030.9 398.7 L 1038.3 397.5 L 1045.8 395.9 L 1053.2 393.9 L 1060.7 391.7 L 1068.1 389.3 L 1075.6 386.7 L 1083.0 384.0 L 1090.4 381.1 L 1097.9 378.1 L 1105.3 375.0 L 1112.8 371.8 L 1120.2 368.5 L 1127.7 365.0 L 1135.1 361.5 L 1142.6 357.9 L 1150.0 354.3 L 1157.4 350.5 L 1164.9 346.7 L 1172.3 342.7 L 1179.8 338.8 L 1187.2 334.7 L 1194.7 330.6 L 1202.1 326.4 L 1209.6 322.1 L 1217.0 317.8 L 1224.4 313.4 L 1231.9 309.0 L 1239.3 304.5 L 1246.8 299.9 L 1254.2 295.3 L 1261.7 290.7 L 1269.1 286.0 L 1276.6 281.2 L 1284.0 276.4 L 1291.4 271.5 L 1298.9 266.6 L 1306.3 261.6 L 1313.8 256.6 L 1321.2 251.6 L 1328.7 246.5 L 1336.1 241.3 L 1343.6 236.2 L 1351.0 230.9 L 1358.4 225.6 L 1365.9 220.3 L 1373.3 215.0 L 1380.8 209.6 L 1388.2 204.1 L 1395.7 198.7 L 1403.1 193.1 L 1410.6 187.6 L 1418.0 182.0 L 1425.4 176.4 L 1432.9 170.7 L 1440.3 165.0 L 1447.8 159.2 L 1455.2 153.5 L 1462.7 147.7 L 1470.1 141.8 L 1477.6 135.9 L 1485.0 130.0 L 1485.0 730.0 Z" fill="#ef4444" opacity="0.16"/>
<rect x="625.4" y="626.0" width="151.7" height="96.0" rx="5" fill="#2563eb" opacity="0.13"/>
<line x1="625.4" y1="626.0" x2="625.4" y2="722.0" stroke="#2563eb" stroke-width="1.5" opacity="0.35"/>
<line x1="777.1" y1="626.0" x2="777.1" y2="722.0" stroke="#2563eb" stroke-width="1.5" opacity="0.35"/>
<rect x="827.6" y="626.0" width="101.1" height="96.0" rx="5" fill="#0891b2" opacity="0.13"/>
<line x1="827.6" y1="626.0" x2="827.6" y2="722.0" stroke="#0891b2" stroke-width="1.5" opacity="0.35"/>
<line x1="928.8" y1="626.0" x2="928.8" y2="722.0" stroke="#0891b2" stroke-width="1.5" opacity="0.35"/>
<rect x="992.0" y="626.0" width="75.8" height="96.0" rx="5" fill="#d97706" opacity="0.13"/>
<line x1="992.0" y1="626.0" x2="992.0" y2="722.0" stroke="#d97706" stroke-width="1.5" opacity="0.35"/>
<line x1="1067.8" y1="626.0" x2="1067.8" y2="722.0" stroke="#d97706" stroke-width="1.5" opacity="0.35"/>
<rect x="1242.3" y="626.0" width="30.3" height="96.0" rx="5" fill="#9333ea" opacity="0.13"/>
<line x1="1242.3" y1="626.0" x2="1242.3" y2="722.0" stroke="#9333ea" stroke-width="1.5" opacity="0.35"/>
<line x1="1272.6" y1="626.0" x2="1272.6" y2="722.0" stroke="#9333ea" stroke-width="1.5" opacity="0.35"/>
<rect x="1295.7" y="626.0" width="30.3" height="96.0" rx="5" fill="#581c87" opacity="0.13"/>
<line x1="1295.7" y1="626.0" x2="1295.7" y2="722.0" stroke="#581c87" stroke-width="1.5" opacity="0.35"/>
<line x1="1326.0" y1="626.0" x2="1326.0" y2="722.0" stroke="#581c87" stroke-width="1.5" opacity="0.35"/>
<path d="M 145.0 630.0 L 152.4 629.9 L 159.9 629.7 L 167.3 629.5 L 174.8 629.1 L 182.2 628.8 L 189.7 628.3 L 197.1 627.8 L 204.6 627.3 L 212.0 626.7 L 219.4 626.1 L 226.9 625.4 L 234.3 624.7 L 241.8 624.0 L 249.2 623.2 L 256.7 622.4 L 264.1 621.5 L 271.6 620.7 L 279.0 619.7 L 286.4 618.8 L 293.9 617.8 L 301.3 616.8 L 308.8 615.7 L 316.2 614.6 L 323.7 613.5 L 331.1 612.3 L 338.6 611.2 L 346.0 610.0 L 353.4 608.7 L 360.9 607.4 L 368.3 606.2 L 375.8 604.8 L 383.2 603.5 L 390.7 602.1 L 398.1 600.7 L 405.6 599.2 L 413.0 597.8 L 420.4 596.3 L 427.9 594.8 L 435.3 593.2 L 442.8 591.7 L 450.2 590.1 L 457.7 588.4 L 465.1 586.8 L 472.6 585.1 L 480.0 583.4 L 487.4 581.7 L 494.9 580.0 L 502.3 578.2 L 509.8 576.4 L 517.2 574.6 L 524.7 572.8 L 532.1 570.9 L 539.6 569.0 L 547.0 567.1 L 554.4 565.2 L 561.9 563.2 L 569.3 561.2 L 576.8 559.2 L 584.2 557.2 L 591.7 555.2 L 599.1 553.1 L 606.6 551.0 L 614.0 548.9 L 621.4 546.7 L 628.9 544.6 L 636.3 542.4 L 643.8 540.2 L 651.2 538.0 L 658.7 535.7 L 666.1 533.5 L 673.6 531.2 L 681.0 528.9 L 688.4 526.6 L 695.9 524.2 L 703.3 521.8 L 710.8 519.4 L 718.2 517.0 L 725.7 514.6 L 733.1 512.2 L 740.6 509.7 L 748.0 507.2 L 755.4 504.7 L 762.9 502.1 L 770.3 499.6 L 777.8 497.0 L 785.2 494.4 L 792.7 491.8 L 800.1 489.2 L 807.6 486.5 L 815.0 483.9 L 822.4 481.2 L 829.9 478.5 L 837.3 475.8 L 844.8 473.0 L 852.2 470.2 L 859.7 467.5 L 867.1 464.7 L 874.6 461.8 L 882.0 459.0 L 889.4 456.1 L 896.9 453.3 L 904.3 450.4 L 911.8 447.4 L 919.2 444.5 L 926.7 441.6 L 934.1 438.6 L 941.6 435.6 L 949.0 432.6 L 956.4 429.6 L 963.9 426.5 L 971.3 423.5 L 978.8 420.4 L 986.2 417.3 L 993.7 414.2 L 1001.1 411.0 L 1008.6 407.9 L 1016.0 404.7 L 1023.4 401.5 L 1030.9 398.7 L 1038.3 397.5 L 1045.8 395.9 L 1053.2 393.9 L 1060.7 391.7 L 1068.1 389.3 L 1075.6 386.7 L 1083.0 384.0 L 1090.4 381.1 L 1097.9 378.1 L 1105.3 375.0 L 1112.8 371.8 L 1120.2 368.5 L 1127.7 365.0 L 1135.1 361.5 L 1142.6 357.9 L 1150.0 354.3 L 1157.4 350.5 L 1164.9 346.7 L 1172.3 342.7 L 1179.8 338.8 L 1187.2 334.7 L 1194.7 330.6 L 1202.1 326.4 L 1209.6 322.1 L 1217.0 317.8 L 1224.4 313.4 L 1231.9 309.0 L 1239.3 304.5 L 1246.8 299.9 L 1254.2 295.3 L 1261.7 290.7 L 1269.1 286.0 L 1276.6 281.2 L 1284.0 276.4 L 1291.4 271.5 L 1298.9 266.6 L 1306.3 261.6 L 1313.8 256.6 L 1321.2 251.6 L 1328.7 246.5 L 1336.1 241.3 L 1343.6 236.2 L 1351.0 230.9 L 1358.4 225.6 L 1365.9 220.3 L 1373.3 215.0 L 1380.8 209.6 L 1388.2 204.1 L 1395.7 198.7 L 1403.1 193.1 L 1410.6 187.6 L 1418.0 182.0 L 1425.4 176.4 L 1432.9 170.7 L 1440.3 165.0 L 1447.8 159.2 L 1455.2 153.5 L 1462.7 147.7 L 1470.1 141.8 L 1477.6 135.9 L 1485.0 130.0" fill="none" stroke="#17202a" stroke-width="6" stroke-linecap="round" stroke-linejoin="round"/>
<line x1="1029.9" y1="115" x2="1029.9" y2="730" stroke="#c2410c" stroke-width="4" stroke-dasharray="12 10"/>
<circle cx="1029.9" cy="398.8" r="9" fill="#c2410c" stroke="#ffffff" stroke-width="4"/>
<rect x="922.9" y="195.8" width="214" height="38" rx="8" fill="#ffffff" opacity="0.94" stroke="#fed7aa" stroke-width="2"/>
<text x="1029.9" y="220.8" text-anchor="middle" font-family="Inter, Segoe UI, Arial, sans-serif" font-size="20" font-weight="650" fill="#9a3412" >Critical Speed (CS)</text>
<line x1="701.2" y1="730" x2="701.2" y2="536.5" stroke="#334155" stroke-width="2" stroke-dasharray="5 7"/>
<circle cx="701.2" cy="522.5" r="18" fill="#bfdbfe" stroke="#334155" stroke-width="3"/>
<text x="701.2" y="530.5" text-anchor="middle" font-family="Inter, Segoe UI, Arial, sans-serif" font-size="23" font-weight="800" fill="#0f172a" >E</text>
<line x1="878.2" y1="730" x2="878.2" y2="474.4" stroke="#334155" stroke-width="2" stroke-dasharray="5 7"/>
<circle cx="878.2" cy="460.4" r="18" fill="#a5f3fc" stroke="#334155" stroke-width="3"/>
<text x="878.2" y="468.4" text-anchor="middle" font-family="Inter, Segoe UI, Arial, sans-serif" font-size="23" font-weight="800" fill="#0f172a" >M</text>
<line x1="1029.9" y1="730" x2="1029.9" y2="412.8" stroke="#334155" stroke-width="2" stroke-dasharray="5 7"/>
<circle cx="1029.9" cy="398.8" r="18" fill="#fde68a" stroke="#334155" stroke-width="3"/>
<text x="1029.9" y="406.8" text-anchor="middle" font-family="Inter, Segoe UI, Arial, sans-serif" font-size="23" font-weight="800" fill="#0f172a" >T</text>
<line x1="1257.5" y1="730" x2="1257.5" y2="307.3" stroke="#334155" stroke-width="2" stroke-dasharray="5 7"/>
<circle cx="1257.5" cy="293.3" r="18" fill="#e9d5ff" stroke="#334155" stroke-width="3"/>
<text x="1257.5" y="301.3" text-anchor="middle" font-family="Inter, Segoe UI, Arial, sans-serif" font-size="23" font-weight="800" fill="#0f172a" >I</text>
<line x1="1310.8" y1="730" x2="1310.8" y2="272.6" stroke="#334155" stroke-width="2" stroke-dasharray="5 7"/>
<circle cx="1310.8" cy="258.6" r="18" fill="#ddd6fe" stroke="#334155" stroke-width="3"/>
<text x="1310.8" y="266.6" text-anchor="middle" font-family="Inter, Segoe UI, Arial, sans-serif" font-size="23" font-weight="800" fill="#0f172a" >R</text>
<rect x="384.0" y="112.0" width="230" height="62" rx="8" fill="#f0fdf4" opacity="0.96" stroke="#bbf7d0" stroke-width="2"/>
<text x="499.0" y="139.0" text-anchor="middle" font-family="Inter, Segoe UI, Arial, sans-serif" font-size="21" font-weight="700" fill="#166534" >below CS</text>
<text x="499.0" y="165.0" text-anchor="middle" font-family="Inter, Segoe UI, Arial, sans-serif" font-size="18" font-weight="600" fill="#166534" >controlled / steady</text>
<rect x="902.3" y="112.0" width="230" height="62" rx="8" fill="#fffbeb" opacity="0.96" stroke="#fde68a" stroke-width="2"/>
<text x="1017.3" y="139.0" text-anchor="middle" font-family="Inter, Segoe UI, Arial, sans-serif" font-size="21" font-weight="700" fill="#92400e" >near CS</text>
<text x="1017.3" y="165.0" text-anchor="middle" font-family="Inter, Segoe UI, Arial, sans-serif" font-size="18" font-weight="600" fill="#92400e" >threshold region</text>
<rect x="1180.4" y="112.0" width="230" height="62" rx="8" fill="#fef2f2" opacity="0.96" stroke="#fecaca" stroke-width="2"/>
<text x="1295.4" y="139.0" text-anchor="middle" font-family="Inter, Segoe UI, Arial, sans-serif" font-size="21" font-weight="700" fill="#991b1b" >above CS</text>
<text x="1295.4" y="165.0" text-anchor="middle" font-family="Inter, Segoe UI, Arial, sans-serif" font-size="18" font-weight="600" fill="#991b1b" >D&#x27; is consumed</text>
<text x="815.0" y="884.0" text-anchor="middle" font-family="Inter, Segoe UI, Arial, sans-serif" font-size="24" font-weight="700" fill="#1f2d3d" >Speed relative to CS</text>
<text x="43.0" y="450.0" text-anchor="middle" font-family="Inter, Segoe UI, Arial, sans-serif" font-size="23" font-weight="700" fill="#1f2d3d" transform="rotate(-90 43 450)">metabolic load / fatigue pressure</text>
<line x1="145" y1="730" x2="1485" y2="730" stroke="#243447" stroke-width="3"/>
<line x1="145" y1="105" x2="145" y2="730" stroke="#243447" stroke-width="3"/>
<rect x="205.0" y="190.0" width="355.0" height="122.0" rx="8" fill="#ffffff" stroke="#d9e2ec" stroke-width="2"/>
<rect x="205.0" y="190.0" width="8" height="122.0" rx="4" fill="#2563eb"/>
<text x="227.0" y="222.0" text-anchor="start" font-family="Inter, Segoe UI, Arial, sans-serif" font-size="21" font-weight="700" fill="#1f2d3d" >Daniels/VDOT</text>
<text x="227.0" y="251.0" text-anchor="start" font-family="Inter, Segoe UI, Arial, sans-serif" font-size="18" font-weight="400" fill="#263442" >VDOT maps a running performance to</text>
<text x="227.0" y="273.0" text-anchor="start" font-family="Inter, Segoe UI, Arial, sans-serif" font-size="18" font-weight="400" fill="#263442" >one fitness value. E, M, T, I, and</text>
<text x="227.0" y="295.0" text-anchor="start" font-family="Inter, Segoe UI, Arial, sans-serif" font-size="18" font-weight="400" fill="#263442" >R are derived as training paces.</text>
<rect x="205.0" y="356.0" width="355.0" height="122.0" rx="8" fill="#ffffff" stroke="#d9e2ec" stroke-width="2"/>
<rect x="205.0" y="356.0" width="8" height="122.0" rx="4" fill="#dc2626"/>
<text x="227.0" y="388.0" text-anchor="start" font-family="Inter, Segoe UI, Arial, sans-serif" font-size="21" font-weight="700" fill="#1f2d3d" >CS model</text>
<text x="227.0" y="417.0" text-anchor="start" font-family="Inter, Segoe UI, Arial, sans-serif" font-size="18" font-weight="400" fill="#263442" >CS marks the heavy -&gt; severe</text>
<text x="227.0" y="439.0" text-anchor="start" font-family="Inter, Segoe UI, Arial, sans-serif" font-size="18" font-weight="400" fill="#263442" >boundary. Above it, the finite D&#x27;</text>
<text x="227.0" y="461.0" text-anchor="start" font-family="Inter, Segoe UI, Arial, sans-serif" font-size="18" font-weight="400" fill="#263442" >reserve is consumed.</text>
</svg>