<?xml version="1.0" encoding="UTF-8"?>
<svg xmlns="http://www.w3.org/2000/svg" width="1600" height="1040" viewBox="0 0 1600 1040" role="img" aria-labelledby="title desc">
<title id="title">Twelve-week mechanical load scenarios</title>
<desc id="desc">Three simplified 12-week training scenarios showing load peaks, adaptation capacity, and wear-off.</desc>
<rect width="1600" height="1040" fill="#f8fafc"/>
<text x="80.0" y="62.0" text-anchor="start" font-family="Inter, Segoe UI, Arial, sans-serif" font-size="36" font-weight="860" fill="#102033" >12-Week Mechanical Load Scenarios</text>
<text x="80.0" y="97.0" text-anchor="start" font-family="Inter, Segoe UI, Arial, sans-serif" font-size="19" font-weight="400" fill="#64748b" >Simplified model: repeated load peaks, tissue adaptation, and residual wear-off over time.</text>
<rect x="80" y="145" width="1440" height="238" rx="14" fill="#ffffff" stroke="#d9e2ec" stroke-width="2"/>
<text x="108.0" y="187.0" text-anchor="start" font-family="Inter, Segoe UI, Arial, sans-serif" font-size="23" font-weight="860" fill="#0f172a" >1. Light load only</text>
<text x="108.0" y="217.0" text-anchor="start" font-family="Inter, Segoe UI, Arial, sans-serif" font-size="16" font-weight="400" fill="#64748b" >low wear-off, but almost no adaptive stimulus</text>
<line x1="330.0" y1="201.0" x2="330.0" y2="341.0" stroke="#e2e8f0" stroke-width="1.5"/>
<text x="330.0" y="367.0" text-anchor="middle" font-family="Inter, Segoe UI, Arial, sans-serif" font-size="14" font-weight="400" fill="#64748b" >W0</text>
<line x1="425.4" y1="201.0" x2="425.4" y2="341.0" stroke="#e2e8f0" stroke-width="1.5"/>
<line x1="520.8" y1="201.0" x2="520.8" y2="341.0" stroke="#e2e8f0" stroke-width="1.5"/>
<line x1="616.2" y1="201.0" x2="616.2" y2="341.0" stroke="#e2e8f0" stroke-width="1.5"/>
<line x1="711.7" y1="201.0" x2="711.7" y2="341.0" stroke="#e2e8f0" stroke-width="1.5"/>
<text x="711.7" y="367.0" text-anchor="middle" font-family="Inter, Segoe UI, Arial, sans-serif" font-size="14" font-weight="400" fill="#64748b" >W4</text>
<line x1="807.1" y1="201.0" x2="807.1" y2="341.0" stroke="#e2e8f0" stroke-width="1.5"/>
<line x1="902.5" y1="201.0" x2="902.5" y2="341.0" stroke="#e2e8f0" stroke-width="1.5"/>
<line x1="997.9" y1="201.0" x2="997.9" y2="341.0" stroke="#e2e8f0" stroke-width="1.5"/>
<line x1="1093.3" y1="201.0" x2="1093.3" y2="341.0" stroke="#e2e8f0" stroke-width="1.5"/>
<text x="1093.3" y="367.0" text-anchor="middle" font-family="Inter, Segoe UI, Arial, sans-serif" font-size="14" font-weight="400" fill="#64748b" >W8</text>
<line x1="1188.8" y1="201.0" x2="1188.8" y2="341.0" stroke="#e2e8f0" stroke-width="1.5"/>
<line x1="1284.2" y1="201.0" x2="1284.2" y2="341.0" stroke="#e2e8f0" stroke-width="1.5"/>
<line x1="1379.6" y1="201.0" x2="1379.6" y2="341.0" stroke="#e2e8f0" stroke-width="1.5"/>
<line x1="1475.0" y1="201.0" x2="1475.0" y2="341.0" stroke="#e2e8f0" stroke-width="1.5"/>
<text x="1475.0" y="367.0" text-anchor="middle" font-family="Inter, Segoe UI, Arial, sans-serif" font-size="14" font-weight="400" fill="#64748b" >W12</text>
<line x1="330.0" y1="296.2" x2="1475.0" y2="296.2" stroke="#edf2f7" stroke-width="1.5"/>
<line x1="330.0" y1="251.4" x2="1475.0" y2="251.4" stroke="#edf2f7" stroke-width="1.5"/>
<line x1="330.0" y1="206.6" x2="1475.0" y2="206.6" stroke="#edf2f7" stroke-width="1.5"/>
<rect x="340.9" y="313.0" width="5.7" height="28.0" rx="2" fill="#0891b2" opacity="0.42"/>
<rect x="368.5" y="313.0" width="5.7" height="28.0" rx="2" fill="#0891b2" opacity="0.42"/>
<rect x="396.1" y="313.0" width="5.7" height="28.0" rx="2" fill="#0891b2" opacity="0.42"/>
<rect x="409.9" y="307.4" width="5.7" height="33.6" rx="2" fill="#0891b2" opacity="0.42"/>
<rect x="437.5" y="312.9" width="5.7" height="28.1" rx="2" fill="#0891b2" opacity="0.42"/>
<rect x="465.1" y="312.9" width="5.7" height="28.1" rx="2" fill="#0891b2" opacity="0.42"/>
<rect x="492.7" y="312.9" width="5.7" height="28.1" rx="2" fill="#0891b2" opacity="0.42"/>
<rect x="534.1" y="312.8" width="5.7" height="28.2" rx="2" fill="#0891b2" opacity="0.42"/>
<rect x="561.7" y="312.8" width="5.7" height="28.2" rx="2" fill="#0891b2" opacity="0.42"/>
<rect x="589.2" y="312.8" width="5.7" height="28.2" rx="2" fill="#0891b2" opacity="0.42"/>
<rect x="603.0" y="307.4" width="5.7" height="33.6" rx="2" fill="#0891b2" opacity="0.42"/>
<rect x="630.6" y="312.7" width="5.7" height="28.3" rx="2" fill="#0891b2" opacity="0.42"/>
<rect x="658.2" y="312.7" width="5.7" height="28.3" rx="2" fill="#0891b2" opacity="0.42"/>
<rect x="685.8" y="312.7" width="5.7" height="28.3" rx="2" fill="#0891b2" opacity="0.42"/>
<rect x="727.2" y="312.6" width="5.7" height="28.4" rx="2" fill="#0891b2" opacity="0.42"/>
<rect x="754.8" y="312.6" width="5.7" height="28.4" rx="2" fill="#0891b2" opacity="0.42"/>
<rect x="782.4" y="312.6" width="5.7" height="28.4" rx="2" fill="#0891b2" opacity="0.42"/>
<rect x="796.2" y="307.4" width="5.7" height="33.6" rx="2" fill="#0891b2" opacity="0.42"/>
<rect x="823.8" y="312.5" width="5.7" height="28.5" rx="2" fill="#0891b2" opacity="0.42"/>
<rect x="851.4" y="312.5" width="5.7" height="28.5" rx="2" fill="#0891b2" opacity="0.42"/>
<rect x="878.9" y="312.5" width="5.7" height="28.5" rx="2" fill="#0891b2" opacity="0.42"/>
<rect x="920.3" y="312.4" width="5.7" height="28.6" rx="2" fill="#0891b2" opacity="0.42"/>
<rect x="947.9" y="312.4" width="5.7" height="28.6" rx="2" fill="#0891b2" opacity="0.42"/>
<rect x="975.5" y="312.4" width="5.7" height="28.6" rx="2" fill="#0891b2" opacity="0.42"/>
<rect x="989.3" y="307.4" width="5.7" height="33.6" rx="2" fill="#0891b2" opacity="0.42"/>
<rect x="1016.9" y="312.3" width="5.7" height="28.7" rx="2" fill="#0891b2" opacity="0.42"/>
<rect x="1044.5" y="312.3" width="5.7" height="28.7" rx="2" fill="#0891b2" opacity="0.42"/>
<rect x="1072.1" y="312.3" width="5.7" height="28.7" rx="2" fill="#0891b2" opacity="0.42"/>
<rect x="1113.5" y="312.2" width="5.7" height="28.8" rx="2" fill="#0891b2" opacity="0.42"/>
<rect x="1141.1" y="312.2" width="5.7" height="28.8" rx="2" fill="#0891b2" opacity="0.42"/>
<rect x="1168.6" y="312.2" width="5.7" height="28.8" rx="2" fill="#0891b2" opacity="0.42"/>
<rect x="1182.4" y="307.4" width="5.7" height="33.6" rx="2" fill="#0891b2" opacity="0.42"/>
<rect x="1210.0" y="312.1" width="5.7" height="28.9" rx="2" fill="#0891b2" opacity="0.42"/>
<rect x="1237.6" y="312.1" width="5.7" height="28.9" rx="2" fill="#0891b2" opacity="0.42"/>
<rect x="1265.2" y="312.1" width="5.7" height="28.9" rx="2" fill="#0891b2" opacity="0.42"/>
<rect x="1306.6" y="312.0" width="5.7" height="29.0" rx="2" fill="#0891b2" opacity="0.42"/>
<rect x="1334.2" y="312.0" width="5.7" height="29.0" rx="2" fill="#0891b2" opacity="0.42"/>
<rect x="1361.8" y="312.0" width="5.7" height="29.0" rx="2" fill="#0891b2" opacity="0.42"/>
<rect x="1375.6" y="307.4" width="5.7" height="33.6" rx="2" fill="#0891b2" opacity="0.42"/>
<rect x="1403.2" y="311.9" width="5.7" height="29.1" rx="2" fill="#0891b2" opacity="0.42"/>
<rect x="1430.8" y="311.9" width="5.7" height="29.1" rx="2" fill="#0891b2" opacity="0.42"/>
<rect x="1458.3" y="311.9" width="5.7" height="29.1" rx="2" fill="#0891b2" opacity="0.42"/>
<path d="M 330.0 341.0 L 330.0 337.1 L 343.8 337.9 L 357.6 339.2 L 371.4 339.1 L 385.2 339.9 L 399.0 339.5 L 412.8 339.1 L 426.6 339.9 L 440.4 339.5 L 454.2 340.1 L 468.0 339.7 L 481.7 340.2 L 495.5 339.7 L 509.3 340.3 L 523.1 340.6 L 536.9 339.9 L 550.7 340.4 L 564.5 339.8 L 578.3 340.3 L 592.1 339.7 L 605.9 339.3 L 619.7 340.0 L 633.5 339.6 L 647.3 340.2 L 661.1 339.7 L 674.9 340.2 L 688.7 339.7 L 702.5 340.2 L 716.3 340.6 L 730.1 339.9 L 743.9 340.4 L 757.7 339.8 L 771.4 340.3 L 785.2 339.7 L 799.0 339.3 L 812.8 340.0 L 826.6 339.6 L 840.4 340.2 L 854.2 339.7 L 868.0 340.2 L 881.8 339.7 L 895.6 340.2 L 909.4 340.6 L 923.2 339.9 L 937.0 340.4 L 950.8 339.8 L 964.6 340.3 L 978.4 339.7 L 992.2 339.3 L 1006.0 340.0 L 1019.8 339.6 L 1033.6 340.2 L 1047.3 339.7 L 1061.1 340.2 L 1074.9 339.7 L 1088.7 340.2 L 1102.5 340.6 L 1116.3 339.9 L 1130.1 340.3 L 1143.9 339.8 L 1157.7 340.3 L 1171.5 339.7 L 1185.3 339.2 L 1199.1 340.0 L 1212.9 339.5 L 1226.7 340.2 L 1240.5 339.6 L 1254.3 340.2 L 1268.1 339.7 L 1281.9 340.2 L 1295.7 340.6 L 1309.5 339.9 L 1323.3 340.3 L 1337.0 339.7 L 1350.8 340.3 L 1364.6 339.7 L 1378.4 339.2 L 1392.2 340.0 L 1406.0 339.5 L 1419.8 340.2 L 1433.6 339.6 L 1447.4 340.2 L 1461.2 339.7 L 1475.0 340.2 L 1475.0 341.0 Z" fill="#fb7185" opacity="0.16"/>
<path d="M 330.0 337.1 L 343.8 337.9 L 357.6 339.2 L 371.4 339.1 L 385.2 339.9 L 399.0 339.5 L 412.8 339.1 L 426.6 339.9 L 440.4 339.5 L 454.2 340.1 L 468.0 339.7 L 481.7 340.2 L 495.5 339.7 L 509.3 340.3 L 523.1 340.6 L 536.9 339.9 L 550.7 340.4 L 564.5 339.8 L 578.3 340.3 L 592.1 339.7 L 605.9 339.3 L 619.7 340.0 L 633.5 339.6 L 647.3 340.2 L 661.1 339.7 L 674.9 340.2 L 688.7 339.7 L 702.5 340.2 L 716.3 340.6 L 730.1 339.9 L 743.9 340.4 L 757.7 339.8 L 771.4 340.3 L 785.2 339.7 L 799.0 339.3 L 812.8 340.0 L 826.6 339.6 L 840.4 340.2 L 854.2 339.7 L 868.0 340.2 L 881.8 339.7 L 895.6 340.2 L 909.4 340.6 L 923.2 339.9 L 937.0 340.4 L 950.8 339.8 L 964.6 340.3 L 978.4 339.7 L 992.2 339.3 L 1006.0 340.0 L 1019.8 339.6 L 1033.6 340.2 L 1047.3 339.7 L 1061.1 340.2 L 1074.9 339.7 L 1088.7 340.2 L 1102.5 340.6 L 1116.3 339.9 L 1130.1 340.3 L 1143.9 339.8 L 1157.7 340.3 L 1171.5 339.7 L 1185.3 339.2 L 1199.1 340.0 L 1212.9 339.5 L 1226.7 340.2 L 1240.5 339.6 L 1254.3 340.2 L 1268.1 339.7 L 1281.9 340.2 L 1295.7 340.6 L 1309.5 339.9 L 1323.3 340.3 L 1337.0 339.7 L 1350.8 340.3 L 1364.6 339.7 L 1378.4 339.2 L 1392.2 340.0 L 1406.0 339.5 L 1419.8 340.2 L 1433.6 339.6 L 1447.4 340.2 L 1461.2 339.7 L 1475.0 340.2" fill="none" stroke="#e11d48" stroke-width="5" stroke-linecap="round" stroke-linejoin="round"/>
<path d="M 330.0 292.9 L 343.8 292.9 L 357.6 293.0 L 371.4 293.0 L 385.2 293.0 L 399.0 293.0 L 412.8 293.0 L 426.6 293.1 L 440.4 293.1 L 454.2 293.1 L 468.0 293.1 L 481.7 293.2 L 495.5 293.2 L 509.3 293.3 L 523.1 293.3 L 536.9 293.3 L 550.7 293.4 L 564.5 293.4 L 578.3 293.5 L 592.1 293.5 L 605.9 293.5 L 619.7 293.5 L 633.5 293.5 L 647.3 293.6 L 661.1 293.6 L 674.9 293.6 L 688.7 293.6 L 702.5 293.7 L 716.3 293.8 L 730.1 293.8 L 743.9 293.8 L 757.7 293.8 L 771.4 293.9 L 785.2 293.9 L 799.0 293.9 L 812.8 293.9 L 826.6 293.9 L 840.4 294.0 L 854.2 294.0 L 868.0 294.1 L 881.8 294.1 L 895.6 294.1 L 909.4 294.2 L 923.2 294.2 L 937.0 294.3 L 950.8 294.3 L 964.6 294.3 L 978.4 294.3 L 992.2 294.3 L 1006.0 294.4 L 1019.8 294.4 L 1033.6 294.4 L 1047.3 294.4 L 1061.1 294.5 L 1074.9 294.5 L 1088.7 294.6 L 1102.5 294.6 L 1116.3 294.6 L 1130.1 294.7 L 1143.9 294.7 L 1157.7 294.7 L 1171.5 294.7 L 1185.3 294.7 L 1199.1 294.8 L 1212.9 294.8 L 1226.7 294.9 L 1240.5 294.9 L 1254.3 294.9 L 1268.1 294.9 L 1281.9 295.0 L 1295.7 295.1 L 1309.5 295.1 L 1323.3 295.1 L 1337.0 295.1 L 1350.8 295.2 L 1364.6 295.2 L 1378.4 295.2 L 1392.2 295.2 L 1406.0 295.2 L 1419.8 295.3 L 1433.6 295.3 L 1447.4 295.4 L 1461.2 295.4 L 1475.0 295.4" fill="none" stroke="#059669" stroke-width="6" stroke-linecap="round" stroke-linejoin="round"/>
<line x1="330.0" y1="341.0" x2="1475.0" y2="341.0" stroke="#243447" stroke-width="2.5"/>
<line x1="330.0" y1="201.0" x2="330.0" y2="341.0" stroke="#243447" stroke-width="2.5"/>
<rect x="1030.0" y="209.0" width="420" height="42" rx="9" fill="#ffffff" opacity="0.92" stroke="#dbe4ef" stroke-width="2"/>
<rect x="1050.0" y="223.0" width="30" height="10" rx="2" fill="#0891b2" opacity="0.45"/>
<text x="1089.0" y="237.0" text-anchor="start" font-family="Inter, Segoe UI, Arial, sans-serif" font-size="15" font-weight="700" fill="#334155" >load peaks</text>
<line x1="1185.0" y1="229.0" x2="1225.0" y2="229.0" stroke="#059669" stroke-width="5" stroke-linecap="round"/>
<text x="1233.0" y="237.0" text-anchor="start" font-family="Inter, Segoe UI, Arial, sans-serif" font-size="15" font-weight="700" fill="#334155" >adaptation</text>
<line x1="1340.0" y1="229.0" x2="1379.0" y2="229.0" stroke="#e11d48" stroke-width="5" stroke-linecap="round"/>
<text x="1387.0" y="237.0" text-anchor="start" font-family="Inter, Segoe UI, Arial, sans-serif" font-size="15" font-weight="700" fill="#334155" >wear-off</text>
<rect x="80" y="423" width="1440" height="238" rx="14" fill="#ffffff" stroke="#d9e2ec" stroke-width="2"/>
<text x="108.0" y="465.0" text-anchor="start" font-family="Inter, Segoe UI, Arial, sans-serif" font-size="23" font-weight="860" fill="#0f172a" >2. Pace-guided load</text>
<text x="108.0" y="495.0" text-anchor="start" font-family="Inter, Segoe UI, Arial, sans-serif" font-size="16" font-weight="400" fill="#64748b" >regular peaks stay close to current tissue capacity</text>
<line x1="330.0" y1="479.0" x2="330.0" y2="619.0" stroke="#e2e8f0" stroke-width="1.5"/>
<text x="330.0" y="645.0" text-anchor="middle" font-family="Inter, Segoe UI, Arial, sans-serif" font-size="14" font-weight="400" fill="#64748b" >W0</text>
<line x1="425.4" y1="479.0" x2="425.4" y2="619.0" stroke="#e2e8f0" stroke-width="1.5"/>
<line x1="520.8" y1="479.0" x2="520.8" y2="619.0" stroke="#e2e8f0" stroke-width="1.5"/>
<line x1="616.2" y1="479.0" x2="616.2" y2="619.0" stroke="#e2e8f0" stroke-width="1.5"/>
<line x1="711.7" y1="479.0" x2="711.7" y2="619.0" stroke="#e2e8f0" stroke-width="1.5"/>
<text x="711.7" y="645.0" text-anchor="middle" font-family="Inter, Segoe UI, Arial, sans-serif" font-size="14" font-weight="400" fill="#64748b" >W4</text>
<line x1="807.1" y1="479.0" x2="807.1" y2="619.0" stroke="#e2e8f0" stroke-width="1.5"/>
<line x1="902.5" y1="479.0" x2="902.5" y2="619.0" stroke="#e2e8f0" stroke-width="1.5"/>
<line x1="997.9" y1="479.0" x2="997.9" y2="619.0" stroke="#e2e8f0" stroke-width="1.5"/>
<line x1="1093.3" y1="479.0" x2="1093.3" y2="619.0" stroke="#e2e8f0" stroke-width="1.5"/>
<text x="1093.3" y="645.0" text-anchor="middle" font-family="Inter, Segoe UI, Arial, sans-serif" font-size="14" font-weight="400" fill="#64748b" >W8</text>
<line x1="1188.8" y1="479.0" x2="1188.8" y2="619.0" stroke="#e2e8f0" stroke-width="1.5"/>
<line x1="1284.2" y1="479.0" x2="1284.2" y2="619.0" stroke="#e2e8f0" stroke-width="1.5"/>
<line x1="1379.6" y1="479.0" x2="1379.6" y2="619.0" stroke="#e2e8f0" stroke-width="1.5"/>
<line x1="1475.0" y1="479.0" x2="1475.0" y2="619.0" stroke="#e2e8f0" stroke-width="1.5"/>
<text x="1475.0" y="645.0" text-anchor="middle" font-family="Inter, Segoe UI, Arial, sans-serif" font-size="14" font-weight="400" fill="#64748b" >W12</text>
<line x1="330.0" y1="574.2" x2="1475.0" y2="574.2" stroke="#edf2f7" stroke-width="1.5"/>
<line x1="330.0" y1="529.4" x2="1475.0" y2="529.4" stroke="#edf2f7" stroke-width="1.5"/>
<line x1="330.0" y1="484.6" x2="1475.0" y2="484.6" stroke="#edf2f7" stroke-width="1.5"/>
<rect x="340.9" y="560.8" width="5.7" height="58.2" rx="2" fill="#0891b2" opacity="0.42"/>
<rect x="354.7" y="580.9" width="5.7" height="38.1" rx="2" fill="#0891b2" opacity="0.42"/>
<rect x="382.3" y="560.8" width="5.7" height="58.2" rx="2" fill="#0891b2" opacity="0.42"/>
<rect x="409.9" y="580.9" width="5.7" height="38.1" rx="2" fill="#0891b2" opacity="0.42"/>
<rect x="437.5" y="559.3" width="5.7" height="59.7" rx="2" fill="#0891b2" opacity="0.42"/>
<rect x="451.3" y="580.4" width="5.7" height="38.6" rx="2" fill="#0891b2" opacity="0.42"/>
<rect x="478.9" y="559.3" width="5.7" height="59.7" rx="2" fill="#0891b2" opacity="0.42"/>
<rect x="506.5" y="580.4" width="5.7" height="38.6" rx="2" fill="#0891b2" opacity="0.42"/>
<rect x="534.1" y="557.8" width="5.7" height="61.2" rx="2" fill="#0891b2" opacity="0.42"/>
<rect x="547.9" y="579.9" width="5.7" height="39.1" rx="2" fill="#0891b2" opacity="0.42"/>
<rect x="575.5" y="557.8" width="5.7" height="61.2" rx="2" fill="#0891b2" opacity="0.42"/>
<rect x="603.0" y="579.9" width="5.7" height="39.1" rx="2" fill="#0891b2" opacity="0.42"/>
<rect x="630.6" y="556.4" width="5.7" height="62.6" rx="2" fill="#0891b2" opacity="0.42"/>
<rect x="644.4" y="579.4" width="5.7" height="39.6" rx="2" fill="#0891b2" opacity="0.42"/>
<rect x="672.0" y="556.4" width="5.7" height="62.6" rx="2" fill="#0891b2" opacity="0.42"/>
<rect x="699.6" y="579.4" width="5.7" height="39.6" rx="2" fill="#0891b2" opacity="0.42"/>
<rect x="727.2" y="554.9" width="5.7" height="64.1" rx="2" fill="#0891b2" opacity="0.42"/>
<rect x="741.0" y="578.9" width="5.7" height="40.1" rx="2" fill="#0891b2" opacity="0.42"/>
<rect x="768.6" y="554.9" width="5.7" height="64.1" rx="2" fill="#0891b2" opacity="0.42"/>
<rect x="796.2" y="578.9" width="5.7" height="40.1" rx="2" fill="#0891b2" opacity="0.42"/>
<rect x="823.8" y="553.5" width="5.7" height="65.5" rx="2" fill="#0891b2" opacity="0.42"/>
<rect x="837.6" y="578.4" width="5.7" height="40.6" rx="2" fill="#0891b2" opacity="0.42"/>
<rect x="865.1" y="553.5" width="5.7" height="65.5" rx="2" fill="#0891b2" opacity="0.42"/>
<rect x="892.7" y="578.4" width="5.7" height="40.6" rx="2" fill="#0891b2" opacity="0.42"/>
<rect x="920.3" y="552.0" width="5.7" height="67.0" rx="2" fill="#0891b2" opacity="0.42"/>
<rect x="934.1" y="577.9" width="5.7" height="41.1" rx="2" fill="#0891b2" opacity="0.42"/>
<rect x="961.7" y="552.0" width="5.7" height="67.0" rx="2" fill="#0891b2" opacity="0.42"/>
<rect x="989.3" y="577.9" width="5.7" height="41.1" rx="2" fill="#0891b2" opacity="0.42"/>
<rect x="1016.9" y="550.6" width="5.7" height="68.4" rx="2" fill="#0891b2" opacity="0.42"/>
<rect x="1030.7" y="577.4" width="5.7" height="41.6" rx="2" fill="#0891b2" opacity="0.42"/>
<rect x="1058.3" y="550.6" width="5.7" height="68.4" rx="2" fill="#0891b2" opacity="0.42"/>
<rect x="1085.9" y="577.4" width="5.7" height="41.6" rx="2" fill="#0891b2" opacity="0.42"/>
<rect x="1113.5" y="549.1" width="5.7" height="69.9" rx="2" fill="#0891b2" opacity="0.42"/>
<rect x="1127.3" y="576.8" width="5.7" height="42.2" rx="2" fill="#0891b2" opacity="0.42"/>
<rect x="1154.8" y="549.1" width="5.7" height="69.9" rx="2" fill="#0891b2" opacity="0.42"/>
<rect x="1182.4" y="576.8" width="5.7" height="42.2" rx="2" fill="#0891b2" opacity="0.42"/>
<rect x="1210.0" y="547.7" width="5.7" height="71.3" rx="2" fill="#0891b2" opacity="0.42"/>
<rect x="1223.8" y="576.3" width="5.7" height="42.7" rx="2" fill="#0891b2" opacity="0.42"/>
<rect x="1251.4" y="547.7" width="5.7" height="71.3" rx="2" fill="#0891b2" opacity="0.42"/>
<rect x="1279.0" y="576.3" width="5.7" height="42.7" rx="2" fill="#0891b2" opacity="0.42"/>
<rect x="1306.6" y="546.2" width="5.7" height="72.8" rx="2" fill="#0891b2" opacity="0.42"/>
<rect x="1320.4" y="575.8" width="5.7" height="43.2" rx="2" fill="#0891b2" opacity="0.42"/>
<rect x="1348.0" y="546.2" width="5.7" height="72.8" rx="2" fill="#0891b2" opacity="0.42"/>
<rect x="1375.6" y="575.8" width="5.7" height="43.2" rx="2" fill="#0891b2" opacity="0.42"/>
<rect x="1403.2" y="544.7" width="5.7" height="74.3" rx="2" fill="#0891b2" opacity="0.42"/>
<rect x="1417.0" y="575.3" width="5.7" height="43.7" rx="2" fill="#0891b2" opacity="0.42"/>
<rect x="1444.5" y="544.7" width="5.7" height="74.3" rx="2" fill="#0891b2" opacity="0.42"/>
<rect x="1472.1" y="575.3" width="5.7" height="43.7" rx="2" fill="#0891b2" opacity="0.42"/>
<path d="M 330.0 619.0 L 330.0 614.7 L 343.8 613.9 L 357.6 614.2 L 371.4 615.9 L 385.2 614.7 L 399.0 616.3 L 412.8 615.7 L 426.6 616.9 L 440.4 615.3 L 454.2 615.1 L 468.0 616.5 L 481.7 615.0 L 495.5 616.4 L 509.3 615.8 L 523.1 617.0 L 536.9 615.3 L 550.7 615.0 L 564.5 616.5 L 578.3 614.9 L 592.1 616.4 L 605.9 615.8 L 619.7 616.9 L 633.5 615.2 L 647.3 615.0 L 661.1 616.4 L 674.9 614.8 L 688.7 616.3 L 702.5 615.7 L 716.3 616.9 L 730.1 615.1 L 743.9 614.9 L 757.7 616.4 L 771.4 614.8 L 785.2 616.3 L 799.0 615.7 L 812.8 616.9 L 826.6 615.0 L 840.4 614.8 L 854.2 616.3 L 868.0 614.7 L 881.8 616.2 L 895.6 615.6 L 909.4 616.8 L 923.2 614.9 L 937.0 614.7 L 950.8 616.3 L 964.6 614.6 L 978.4 616.2 L 992.2 615.5 L 1006.0 616.8 L 1019.8 614.8 L 1033.6 614.7 L 1047.3 616.2 L 1061.1 614.5 L 1074.9 616.1 L 1088.7 615.5 L 1102.5 616.8 L 1116.3 614.8 L 1130.1 614.6 L 1143.9 616.2 L 1157.7 614.4 L 1171.5 616.1 L 1185.3 615.4 L 1199.1 616.7 L 1212.9 614.7 L 1226.7 614.5 L 1240.5 616.1 L 1254.3 614.3 L 1268.1 616.0 L 1281.9 615.4 L 1295.7 616.7 L 1309.5 614.6 L 1323.3 614.5 L 1337.0 616.1 L 1350.8 614.2 L 1364.6 615.9 L 1378.4 615.3 L 1392.2 616.6 L 1406.0 614.5 L 1419.8 614.4 L 1433.6 616.0 L 1447.4 614.1 L 1461.2 615.9 L 1475.0 615.3 L 1475.0 619.0 Z" fill="#fb7185" opacity="0.16"/>
<path d="M 330.0 614.7 L 343.8 613.9 L 357.6 614.2 L 371.4 615.9 L 385.2 614.7 L 399.0 616.3 L 412.8 615.7 L 426.6 616.9 L 440.4 615.3 L 454.2 615.1 L 468.0 616.5 L 481.7 615.0 L 495.5 616.4 L 509.3 615.8 L 523.1 617.0 L 536.9 615.3 L 550.7 615.0 L 564.5 616.5 L 578.3 614.9 L 592.1 616.4 L 605.9 615.8 L 619.7 616.9 L 633.5 615.2 L 647.3 615.0 L 661.1 616.4 L 674.9 614.8 L 688.7 616.3 L 702.5 615.7 L 716.3 616.9 L 730.1 615.1 L 743.9 614.9 L 757.7 616.4 L 771.4 614.8 L 785.2 616.3 L 799.0 615.7 L 812.8 616.9 L 826.6 615.0 L 840.4 614.8 L 854.2 616.3 L 868.0 614.7 L 881.8 616.2 L 895.6 615.6 L 909.4 616.8 L 923.2 614.9 L 937.0 614.7 L 950.8 616.3 L 964.6 614.6 L 978.4 616.2 L 992.2 615.5 L 1006.0 616.8 L 1019.8 614.8 L 1033.6 614.7 L 1047.3 616.2 L 1061.1 614.5 L 1074.9 616.1 L 1088.7 615.5 L 1102.5 616.8 L 1116.3 614.8 L 1130.1 614.6 L 1143.9 616.2 L 1157.7 614.4 L 1171.5 616.1 L 1185.3 615.4 L 1199.1 616.7 L 1212.9 614.7 L 1226.7 614.5 L 1240.5 616.1 L 1254.3 614.3 L 1268.1 616.0 L 1281.9 615.4 L 1295.7 616.7 L 1309.5 614.6 L 1323.3 614.5 L 1337.0 616.1 L 1350.8 614.2 L 1364.6 615.9 L 1378.4 615.3 L 1392.2 616.6 L 1406.0 614.5 L 1419.8 614.4 L 1433.6 616.0 L 1447.4 614.1 L 1461.2 615.9 L 1475.0 615.3" fill="none" stroke="#e11d48" stroke-width="5" stroke-linecap="round" stroke-linejoin="round"/>
<path d="M 330.0 558.6 L 343.8 558.1 L 357.6 558.1 L 371.4 558.1 L 385.2 557.6 L 399.0 557.7 L 412.8 557.7 L 426.6 557.7 L 440.4 557.2 L 454.2 557.1 L 468.0 557.2 L 481.7 556.6 L 495.5 556.7 L 509.3 556.7 L 523.1 556.8 L 536.9 556.2 L 550.7 556.1 L 564.5 556.2 L 578.3 555.6 L 592.1 555.6 L 605.9 555.6 L 619.7 555.7 L 633.5 555.0 L 647.3 555.0 L 661.1 555.1 L 674.9 554.4 L 688.7 554.5 L 702.5 554.5 L 716.3 554.5 L 730.1 553.8 L 743.9 553.8 L 757.7 553.8 L 771.4 553.2 L 785.2 553.2 L 799.0 553.2 L 812.8 553.2 L 826.6 552.5 L 840.4 552.5 L 854.2 552.5 L 868.0 551.8 L 881.8 551.9 L 895.6 551.8 L 909.4 551.9 L 923.2 551.1 L 937.0 551.0 L 950.8 551.1 L 964.6 550.3 L 978.4 550.4 L 992.2 550.3 L 1006.0 550.4 L 1019.8 549.6 L 1033.6 549.5 L 1047.3 549.6 L 1061.1 548.8 L 1074.9 548.8 L 1088.7 548.7 L 1102.5 548.8 L 1116.3 548.0 L 1130.1 547.9 L 1143.9 547.9 L 1157.7 547.1 L 1171.5 547.2 L 1185.3 547.1 L 1199.1 547.1 L 1212.9 546.3 L 1226.7 546.1 L 1240.5 546.2 L 1254.3 545.3 L 1268.1 545.4 L 1281.9 545.3 L 1295.7 545.3 L 1309.5 544.4 L 1323.3 544.3 L 1337.0 544.4 L 1350.8 543.5 L 1364.6 543.5 L 1378.4 543.4 L 1392.2 543.5 L 1406.0 542.5 L 1419.8 542.4 L 1433.6 542.4 L 1447.4 541.5 L 1461.2 541.6 L 1475.0 541.4" fill="none" stroke="#059669" stroke-width="6" stroke-linecap="round" stroke-linejoin="round"/>
<line x1="330.0" y1="619.0" x2="1475.0" y2="619.0" stroke="#243447" stroke-width="2.5"/>
<line x1="330.0" y1="479.0" x2="330.0" y2="619.0" stroke="#243447" stroke-width="2.5"/>
<rect x="80" y="701" width="1440" height="238" rx="14" fill="#ffffff" stroke="#d9e2ec" stroke-width="2"/>
<text x="108.0" y="743.0" text-anchor="start" font-family="Inter, Segoe UI, Arial, sans-serif" font-size="23" font-weight="860" fill="#0f172a" >3. HR-guided drift</text>
<text x="108.0" y="773.0" text-anchor="start" font-family="Inter, Segoe UI, Arial, sans-serif" font-size="16" font-weight="400" fill="#64748b" >external load rises while tissue adaptation lags behind</text>
<line x1="330.0" y1="757.0" x2="330.0" y2="897.0" stroke="#e2e8f0" stroke-width="1.5"/>
<text x="330.0" y="923.0" text-anchor="middle" font-family="Inter, Segoe UI, Arial, sans-serif" font-size="14" font-weight="400" fill="#64748b" >W0</text>
<line x1="425.4" y1="757.0" x2="425.4" y2="897.0" stroke="#e2e8f0" stroke-width="1.5"/>
<line x1="520.8" y1="757.0" x2="520.8" y2="897.0" stroke="#e2e8f0" stroke-width="1.5"/>
<line x1="616.2" y1="757.0" x2="616.2" y2="897.0" stroke="#e2e8f0" stroke-width="1.5"/>
<line x1="711.7" y1="757.0" x2="711.7" y2="897.0" stroke="#e2e8f0" stroke-width="1.5"/>
<text x="711.7" y="923.0" text-anchor="middle" font-family="Inter, Segoe UI, Arial, sans-serif" font-size="14" font-weight="400" fill="#64748b" >W4</text>
<line x1="807.1" y1="757.0" x2="807.1" y2="897.0" stroke="#e2e8f0" stroke-width="1.5"/>
<line x1="902.5" y1="757.0" x2="902.5" y2="897.0" stroke="#e2e8f0" stroke-width="1.5"/>
<line x1="997.9" y1="757.0" x2="997.9" y2="897.0" stroke="#e2e8f0" stroke-width="1.5"/>
<line x1="1093.3" y1="757.0" x2="1093.3" y2="897.0" stroke="#e2e8f0" stroke-width="1.5"/>
<text x="1093.3" y="923.0" text-anchor="middle" font-family="Inter, Segoe UI, Arial, sans-serif" font-size="14" font-weight="400" fill="#64748b" >W8</text>
<line x1="1188.8" y1="757.0" x2="1188.8" y2="897.0" stroke="#e2e8f0" stroke-width="1.5"/>
<line x1="1284.2" y1="757.0" x2="1284.2" y2="897.0" stroke="#e2e8f0" stroke-width="1.5"/>
<line x1="1379.6" y1="757.0" x2="1379.6" y2="897.0" stroke="#e2e8f0" stroke-width="1.5"/>
<line x1="1475.0" y1="757.0" x2="1475.0" y2="897.0" stroke="#e2e8f0" stroke-width="1.5"/>
<text x="1475.0" y="923.0" text-anchor="middle" font-family="Inter, Segoe UI, Arial, sans-serif" font-size="14" font-weight="400" fill="#64748b" >W12</text>
<line x1="330.0" y1="852.2" x2="1475.0" y2="852.2" stroke="#edf2f7" stroke-width="1.5"/>
<line x1="330.0" y1="807.4" x2="1475.0" y2="807.4" stroke="#edf2f7" stroke-width="1.5"/>
<line x1="330.0" y1="762.6" x2="1475.0" y2="762.6" stroke="#edf2f7" stroke-width="1.5"/>
<rect x="340.9" y="835.4" width="5.7" height="61.6" rx="2" fill="#0891b2" opacity="0.42"/>
<rect x="354.7" y="852.2" width="5.7" height="44.8" rx="2" fill="#0891b2" opacity="0.42"/>
<rect x="382.3" y="835.4" width="5.7" height="61.6" rx="2" fill="#0891b2" opacity="0.42"/>
<rect x="409.9" y="852.2" width="5.7" height="44.8" rx="2" fill="#0891b2" opacity="0.42"/>
<rect x="437.5" y="830.4" width="5.7" height="66.6" rx="2" fill="#0891b2" opacity="0.42"/>
<rect x="451.3" y="848.7" width="5.7" height="48.3" rx="2" fill="#0891b2" opacity="0.42"/>
<rect x="478.9" y="830.4" width="5.7" height="66.6" rx="2" fill="#0891b2" opacity="0.42"/>
<rect x="506.5" y="848.7" width="5.7" height="48.3" rx="2" fill="#0891b2" opacity="0.42"/>
<rect x="534.1" y="825.3" width="5.7" height="71.7" rx="2" fill="#0891b2" opacity="0.42"/>
<rect x="547.9" y="845.1" width="5.7" height="51.9" rx="2" fill="#0891b2" opacity="0.42"/>
<rect x="575.5" y="825.3" width="5.7" height="71.7" rx="2" fill="#0891b2" opacity="0.42"/>
<rect x="603.0" y="845.1" width="5.7" height="51.9" rx="2" fill="#0891b2" opacity="0.42"/>
<rect x="630.6" y="820.3" width="5.7" height="76.7" rx="2" fill="#e11d48" opacity="0.56"/>
<rect x="644.4" y="841.6" width="5.7" height="55.4" rx="2" fill="#0891b2" opacity="0.42"/>
<rect x="672.0" y="820.3" width="5.7" height="76.7" rx="2" fill="#e11d48" opacity="0.56"/>
<rect x="699.6" y="841.6" width="5.7" height="55.4" rx="2" fill="#0891b2" opacity="0.42"/>
<rect x="727.2" y="815.2" width="5.7" height="81.8" rx="2" fill="#e11d48" opacity="0.56"/>
<rect x="741.0" y="838.1" width="5.7" height="58.9" rx="2" fill="#0891b2" opacity="0.42"/>
<rect x="768.6" y="815.2" width="5.7" height="81.8" rx="2" fill="#e11d48" opacity="0.56"/>
<rect x="796.2" y="838.1" width="5.7" height="58.9" rx="2" fill="#0891b2" opacity="0.42"/>
<rect x="823.8" y="810.2" width="5.7" height="86.8" rx="2" fill="#e11d48" opacity="0.56"/>
<rect x="837.6" y="834.6" width="5.7" height="62.4" rx="2" fill="#0891b2" opacity="0.42"/>
<rect x="865.1" y="810.2" width="5.7" height="86.8" rx="2" fill="#e11d48" opacity="0.56"/>
<rect x="892.7" y="834.6" width="5.7" height="62.4" rx="2" fill="#0891b2" opacity="0.42"/>
<rect x="920.3" y="805.2" width="5.7" height="91.8" rx="2" fill="#e11d48" opacity="0.56"/>
<rect x="934.1" y="831.0" width="5.7" height="66.0" rx="2" fill="#0891b2" opacity="0.42"/>
<rect x="961.7" y="805.2" width="5.7" height="91.8" rx="2" fill="#e11d48" opacity="0.56"/>
<rect x="989.3" y="831.0" width="5.7" height="66.0" rx="2" fill="#0891b2" opacity="0.42"/>
<rect x="1016.9" y="800.1" width="5.7" height="96.9" rx="2" fill="#e11d48" opacity="0.56"/>
<rect x="1030.7" y="827.5" width="5.7" height="69.5" rx="2" fill="#0891b2" opacity="0.42"/>
<rect x="1058.3" y="800.1" width="5.7" height="96.9" rx="2" fill="#e11d48" opacity="0.56"/>
<rect x="1085.9" y="827.5" width="5.7" height="69.5" rx="2" fill="#0891b2" opacity="0.42"/>
<rect x="1113.5" y="795.1" width="5.7" height="101.9" rx="2" fill="#e11d48" opacity="0.56"/>
<rect x="1127.3" y="824.0" width="5.7" height="73.0" rx="2" fill="#0891b2" opacity="0.42"/>
<rect x="1154.8" y="795.1" width="5.7" height="101.9" rx="2" fill="#e11d48" opacity="0.56"/>
<rect x="1182.4" y="824.0" width="5.7" height="73.0" rx="2" fill="#0891b2" opacity="0.42"/>
<rect x="1210.0" y="790.0" width="5.7" height="107.0" rx="2" fill="#e11d48" opacity="0.56"/>
<rect x="1223.8" y="820.4" width="5.7" height="76.6" rx="2" fill="#0891b2" opacity="0.42"/>
<rect x="1251.4" y="790.0" width="5.7" height="107.0" rx="2" fill="#e11d48" opacity="0.56"/>
<rect x="1279.0" y="820.4" width="5.7" height="76.6" rx="2" fill="#0891b2" opacity="0.42"/>
<rect x="1306.6" y="785.0" width="5.7" height="112.0" rx="2" fill="#e11d48" opacity="0.56"/>
<rect x="1320.4" y="816.9" width="5.7" height="80.1" rx="2" fill="#e11d48" opacity="0.56"/>
<rect x="1348.0" y="785.0" width="5.7" height="112.0" rx="2" fill="#e11d48" opacity="0.56"/>
<rect x="1375.6" y="816.9" width="5.7" height="80.1" rx="2" fill="#e11d48" opacity="0.56"/>
<rect x="1403.2" y="780.0" width="5.7" height="117.0" rx="2" fill="#e11d48" opacity="0.56"/>
<rect x="1417.0" y="813.4" width="5.7" height="83.6" rx="2" fill="#e11d48" opacity="0.56"/>
<rect x="1444.5" y="780.0" width="5.7" height="117.0" rx="2" fill="#e11d48" opacity="0.56"/>
<rect x="1472.1" y="813.4" width="5.7" height="83.6" rx="2" fill="#e11d48" opacity="0.56"/>
<path d="M 330.0 897.0 L 330.0 891.9 L 343.8 889.9 L 357.6 889.5 L 371.4 891.3 L 385.2 889.5 L 399.0 891.3 L 412.8 890.6 L 426.6 892.1 L 440.4 888.2 L 454.2 888.1 L 468.0 890.2 L 481.7 886.8 L 495.5 889.3 L 509.3 888.9 L 523.1 890.8 L 536.9 885.4 L 550.7 885.8 L 564.5 888.5 L 578.3 883.7 L 592.1 886.9 L 605.9 886.9 L 619.7 889.3 L 633.5 882.4 L 647.3 883.4 L 661.1 886.6 L 674.9 880.5 L 688.7 884.4 L 702.5 884.9 L 716.3 887.8 L 730.1 879.5 L 743.9 881.0 L 757.7 884.8 L 771.4 877.3 L 785.2 882.0 L 799.0 882.9 L 812.8 886.3 L 826.6 876.6 L 840.4 878.6 L 854.2 883.0 L 868.0 874.2 L 881.8 879.7 L 895.6 881.0 L 909.4 884.8 L 923.2 873.7 L 937.0 875.3 L 950.8 880.5 L 964.6 870.6 L 978.4 876.9 L 992.2 877.9 L 1006.0 882.5 L 1019.8 870.2 L 1033.6 871.5 L 1047.3 877.6 L 1061.1 866.7 L 1074.9 873.9 L 1088.7 874.5 L 1102.5 879.9 L 1116.3 866.5 L 1130.1 867.6 L 1143.9 874.7 L 1157.7 862.7 L 1171.5 870.9 L 1185.3 871.1 L 1199.1 877.3 L 1212.9 862.9 L 1226.7 863.8 L 1240.5 871.7 L 1254.3 858.8 L 1268.1 868.0 L 1281.9 867.7 L 1295.7 874.8 L 1309.5 859.3 L 1323.3 859.9 L 1337.0 868.8 L 1350.8 854.9 L 1364.6 865.0 L 1378.4 864.4 L 1392.2 872.2 L 1406.0 855.7 L 1419.8 856.1 L 1433.6 865.9 L 1447.4 851.1 L 1461.2 862.1 L 1475.0 861.1 L 1475.0 897.0 Z" fill="#fb7185" opacity="0.16"/>
<path d="M 330.0 891.9 L 343.8 889.9 L 357.6 889.5 L 371.4 891.3 L 385.2 889.5 L 399.0 891.3 L 412.8 890.6 L 426.6 892.1 L 440.4 888.2 L 454.2 888.1 L 468.0 890.2 L 481.7 886.8 L 495.5 889.3 L 509.3 888.9 L 523.1 890.8 L 536.9 885.4 L 550.7 885.8 L 564.5 888.5 L 578.3 883.7 L 592.1 886.9 L 605.9 886.9 L 619.7 889.3 L 633.5 882.4 L 647.3 883.4 L 661.1 886.6 L 674.9 880.5 L 688.7 884.4 L 702.5 884.9 L 716.3 887.8 L 730.1 879.5 L 743.9 881.0 L 757.7 884.8 L 771.4 877.3 L 785.2 882.0 L 799.0 882.9 L 812.8 886.3 L 826.6 876.6 L 840.4 878.6 L 854.2 883.0 L 868.0 874.2 L 881.8 879.7 L 895.6 881.0 L 909.4 884.8 L 923.2 873.7 L 937.0 875.3 L 950.8 880.5 L 964.6 870.6 L 978.4 876.9 L 992.2 877.9 L 1006.0 882.5 L 1019.8 870.2 L 1033.6 871.5 L 1047.3 877.6 L 1061.1 866.7 L 1074.9 873.9 L 1088.7 874.5 L 1102.5 879.9 L 1116.3 866.5 L 1130.1 867.6 L 1143.9 874.7 L 1157.7 862.7 L 1171.5 870.9 L 1185.3 871.1 L 1199.1 877.3 L 1212.9 862.9 L 1226.7 863.8 L 1240.5 871.7 L 1254.3 858.8 L 1268.1 868.0 L 1281.9 867.7 L 1295.7 874.8 L 1309.5 859.3 L 1323.3 859.9 L 1337.0 868.8 L 1350.8 854.9 L 1364.6 865.0 L 1378.4 864.4 L 1392.2 872.2 L 1406.0 855.7 L 1419.8 856.1 L 1433.6 865.9 L 1447.4 851.1 L 1461.2 862.1 L 1475.0 861.1" fill="none" stroke="#e11d48" stroke-width="5" stroke-linecap="round" stroke-linejoin="round"/>
<path d="M 330.0 836.6 L 343.8 836.4 L 357.6 836.4 L 371.4 836.4 L 385.2 836.3 L 399.0 836.4 L 412.8 836.3 L 426.6 836.4 L 440.4 836.2 L 454.2 836.1 L 468.0 836.2 L 481.7 836.0 L 495.5 836.1 L 509.3 836.0 L 523.1 836.1 L 536.9 835.8 L 550.7 835.7 L 564.5 835.8 L 578.3 835.6 L 592.1 835.7 L 605.9 835.6 L 619.7 835.6 L 633.5 835.4 L 647.3 835.3 L 661.1 835.3 L 674.9 835.1 L 688.7 835.2 L 702.5 835.1 L 716.3 835.1 L 730.1 834.9 L 743.9 834.8 L 757.7 834.8 L 771.4 834.6 L 785.2 834.7 L 799.0 834.5 L 812.8 834.6 L 826.6 834.4 L 840.4 834.2 L 854.2 834.3 L 868.0 834.0 L 881.8 834.1 L 895.6 833.9 L 909.4 834.0 L 923.2 833.8 L 937.0 833.6 L 950.8 833.6 L 964.6 833.4 L 978.4 833.5 L 992.2 833.3 L 1006.0 833.3 L 1019.8 833.1 L 1033.6 832.9 L 1047.3 833.0 L 1061.1 832.7 L 1074.9 832.8 L 1088.7 832.6 L 1102.5 832.6 L 1116.3 832.4 L 1130.1 832.2 L 1143.9 832.2 L 1157.7 832.0 L 1171.5 832.0 L 1185.3 831.8 L 1199.1 831.9 L 1212.9 831.6 L 1226.7 831.4 L 1240.5 831.4 L 1254.3 831.2 L 1268.1 831.3 L 1281.9 831.0 L 1295.7 831.1 L 1309.5 830.8 L 1323.3 830.6 L 1337.0 830.6 L 1350.8 830.4 L 1364.6 830.4 L 1378.4 830.2 L 1392.2 830.2 L 1406.0 830.0 L 1419.8 829.7 L 1433.6 829.8 L 1447.4 829.5 L 1461.2 829.6 L 1475.0 829.3" fill="none" stroke="#059669" stroke-width="6" stroke-linecap="round" stroke-linejoin="round"/>
<line x1="330.0" y1="897.0" x2="1475.0" y2="897.0" stroke="#243447" stroke-width="2.5"/>
<line x1="330.0" y1="757.0" x2="330.0" y2="897.0" stroke="#243447" stroke-width="2.5"/>
<text x="80.0" y="1000.0" text-anchor="start" font-family="Inter, Segoe UI, Arial, sans-serif" font-size="15" font-weight="400" fill="#64748b" >Model assumption: mechanical load peaks are external impulses; adaptation changes slowly; wear-off decays between sessions but accumulates when peaks exceed current capacity.</text>
</svg>